<svg width="340" height="43" viewBox="0 0 340 43" fill="none" xmlns="http://www.w3.org/2000/svg">
<path d="M15.317 25.5822C15.317 25.0311 15.2306 24.5448 15.0577 24.1234C14.8956 23.6912 14.6038 23.3022 14.1824 22.9564C13.7718 22.6106 13.1991 22.281 12.4643 21.9677C11.7403 21.6543 10.8219 21.3355 9.70888 21.0114C8.54187 20.6656 7.48832 20.282 6.54823 19.8606C5.60814 19.4283 4.80311 18.9367 4.13316 18.3856C3.46321 17.8345 2.94994 17.2024 2.59336 16.4892C2.23677 15.776 2.05848 14.9602 2.05848 14.0417C2.05848 13.1232 2.24758 12.275 2.62577 11.497C3.00397 10.719 3.54426 10.0436 4.24662 9.47092C4.9598 8.88741 5.80804 8.43357 6.79136 8.1094C7.77467 7.78523 8.87145 7.62315 10.0817 7.62315C11.8538 7.62315 13.3558 7.96353 14.5876 8.64428C15.8303 9.31423 16.7758 10.1949 17.4241 11.2863C18.0725 12.3668 18.3966 13.523 18.3966 14.7549H15.2846C15.2846 13.8688 15.0955 13.0854 14.7173 12.4047C14.3391 11.7131 13.7664 11.1728 12.9992 10.7838C12.232 10.384 11.2595 10.1841 10.0817 10.1841C8.9687 10.1841 8.05022 10.3516 7.32624 10.6866C6.60226 11.0215 6.06197 11.4754 5.70539 12.0481C5.35961 12.6208 5.18672 13.2745 5.18672 14.0093C5.18672 14.5064 5.28937 14.9602 5.49468 15.3708C5.71079 15.7706 6.04036 16.1434 6.48339 16.4892C6.93723 16.835 7.50993 17.1537 8.20149 17.4455C8.90386 17.7372 9.7413 18.0182 10.7138 18.2883C12.0537 18.6665 13.2099 19.088 14.1824 19.5526C15.1549 20.0172 15.9546 20.5413 16.5813 21.1248C17.2188 21.6975 17.6889 22.3513 17.9914 23.086C18.3048 23.81 18.4615 24.6313 18.4615 25.5497C18.4615 26.5114 18.267 27.3813 17.878 28.1593C17.489 28.9373 16.9325 29.6019 16.2085 30.1529C15.4845 30.704 14.6147 31.1309 13.5989 31.4334C12.594 31.7252 11.4702 31.871 10.2276 31.871C9.13618 31.871 8.06102 31.7198 7.00207 31.4172C5.95392 31.1146 4.99762 30.6608 4.13316 30.0557C3.27952 29.4506 2.59336 28.705 2.07469 27.8189C1.56682 26.9221 1.31289 25.8847 1.31289 24.7069H4.42492C4.42492 25.5173 4.5816 26.2143 4.89496 26.7978C5.20833 27.3705 5.63515 27.8459 6.17543 28.2241C6.72652 28.6023 7.34785 28.8833 8.03941 29.067C8.74178 29.2399 9.47116 29.3263 10.2276 29.3263C11.3189 29.3263 12.2428 29.175 12.9992 28.8725C13.7556 28.5699 14.3283 28.1377 14.7173 27.5758C15.1171 27.0139 15.317 26.3494 15.317 25.5822ZM40.6185 19.0015V20.4927C40.6185 22.2648 40.397 23.8532 39.9539 25.258C39.5109 26.6627 38.8734 27.8567 38.0413 28.8401C37.2093 29.8234 36.2098 30.5744 35.0427 31.093C33.8865 31.6117 32.5899 31.871 31.1527 31.871C29.7588 31.871 28.4783 31.6117 27.3113 31.093C26.1551 30.5744 25.1502 29.8234 24.2965 28.8401C23.4537 27.8567 22.7999 26.6627 22.3353 25.258C21.8707 23.8532 21.6383 22.2648 21.6383 20.4927V19.0015C21.6383 17.2294 21.8652 15.6463 22.3191 14.2524C22.7837 12.8477 23.4375 11.6537 24.2803 10.6703C25.1232 9.67622 26.1227 8.91983 27.2789 8.40116C28.4459 7.88248 29.7264 7.62315 31.1203 7.62315C32.5574 7.62315 33.8541 7.88248 35.0103 8.40116C36.1773 8.91983 37.1769 9.67622 38.0089 10.6703C38.8517 11.6537 39.4947 12.8477 39.9377 14.2524C40.3915 15.6463 40.6185 17.2294 40.6185 19.0015ZM37.5226 20.4927V18.9691C37.5226 17.5644 37.3768 16.3217 37.085 15.2411C36.8041 14.1606 36.3881 13.2529 35.837 12.5181C35.2859 11.7833 34.6105 11.2268 33.8109 10.8486C33.0221 10.4704 32.1252 10.2813 31.1203 10.2813C30.1478 10.2813 29.2671 10.4704 28.4783 10.8486C27.7003 11.2268 27.0304 11.7833 26.4685 12.5181C25.9174 13.2529 25.4905 14.1606 25.188 15.2411C24.8854 16.3217 24.7342 17.5644 24.7342 18.9691V20.4927C24.7342 21.9082 24.8854 23.1617 25.188 24.2531C25.4905 25.3336 25.9228 26.2467 26.4847 26.9923C27.0574 27.7271 27.7327 28.2836 28.5107 28.6618C29.2995 29.04 30.1802 29.2291 31.1527 29.2291C32.1684 29.2291 33.0707 29.04 33.8595 28.6618C34.6483 28.2836 35.3129 27.7271 35.8532 26.9923C36.4043 26.2467 36.8203 25.3336 37.1012 24.2531C37.3822 23.1617 37.5226 21.9082 37.5226 20.4927ZM51.0891 20.282V22.7457H43.1794V20.282H51.0891ZM72.6464 19.0015V20.4927C72.6464 22.2648 72.4249 23.8532 71.9819 25.258C71.5389 26.6627 70.9013 27.8567 70.0693 28.8401C69.2373 29.8234 68.2377 30.5744 67.0707 31.093C65.9145 31.6117 64.6178 31.871 63.1807 31.871C61.7867 31.871 60.5063 31.6117 59.3393 31.093C58.1831 30.5744 57.1781 29.8234 56.3245 28.8401C55.4816 27.8567 54.8279 26.6627 54.3633 25.258C53.8986 23.8532 53.6663 22.2648 53.6663 20.4927V19.0015C53.6663 17.2294 53.8932 15.6463 54.3471 14.2524C54.8117 12.8477 55.4654 11.6537 56.3083 10.6703C57.1511 9.67622 58.1506 8.91983 59.3069 8.40116C60.4739 7.88248 61.7543 7.62315 63.1483 7.62315C64.5854 7.62315 65.8821 7.88248 67.0383 8.40116C68.2053 8.91983 69.2048 9.67622 70.0369 10.6703C70.8797 11.6537 71.5226 12.8477 71.9657 14.2524C72.4195 15.6463 72.6464 17.2294 72.6464 19.0015ZM69.5506 20.4927V18.9691C69.5506 17.5644 69.4047 16.3217 69.113 15.2411C68.832 14.1606 68.416 13.2529 67.8649 12.5181C67.3138 11.7833 66.6385 11.2268 65.8389 10.8486C65.0501 10.4704 64.1532 10.2813 63.1483 10.2813C62.1758 10.2813 61.2951 10.4704 60.5063 10.8486C59.7283 11.2268 59.0583 11.7833 58.4964 12.5181C57.9453 13.2529 57.5185 14.1606 57.216 15.2411C56.9134 16.3217 56.7621 17.5644 56.7621 18.9691V20.4927C56.7621 21.9082 56.9134 23.1617 57.216 24.2531C57.5185 25.3336 57.9507 26.2467 58.5126 26.9923C59.0853 27.7271 59.7607 28.2836 60.5387 28.6618C61.3275 29.04 62.2082 29.2291 63.1807 29.2291C64.1964 29.2291 65.0987 29.04 65.8875 28.6618C66.6763 28.2836 67.3409 27.7271 67.8811 26.9923C68.4322 26.2467 68.8482 25.3336 69.1292 24.2531C69.4101 23.1617 69.5506 21.9082 69.5506 20.4927ZM89.9085 25.5822C89.9085 25.0311 89.822 24.5448 89.6491 24.1234C89.4871 23.6912 89.1953 23.3022 88.7739 22.9564C88.3633 22.6106 87.7906 22.281 87.0558 21.9677C86.3318 21.6543 85.4133 21.3355 84.3003 21.0114C83.1333 20.6656 82.0798 20.282 81.1397 19.8606C80.1996 19.4283 79.3946 18.9367 78.7246 18.3856C78.0547 17.8345 77.5414 17.2024 77.1848 16.4892C76.8282 15.776 76.6499 14.9602 76.6499 14.0417C76.6499 13.1232 76.839 12.275 77.2172 11.497C77.5954 10.719 78.1357 10.0436 78.8381 9.47092C79.5513 8.88741 80.3995 8.43357 81.3828 8.1094C82.3661 7.78523 83.4629 7.62315 84.6731 7.62315C86.4453 7.62315 87.9472 7.96353 89.1791 8.64428C90.4217 9.31423 91.3672 10.1949 92.0156 11.2863C92.6639 12.3668 92.9881 13.523 92.9881 14.7549H89.8761C89.8761 13.8688 89.687 13.0854 89.3088 12.4047C88.9306 11.7131 88.3579 11.1728 87.5907 10.7838C86.8235 10.384 85.8509 10.1841 84.6731 10.1841C83.5601 10.1841 82.6417 10.3516 81.9177 10.6866C81.1937 11.0215 80.6534 11.4754 80.2968 12.0481C79.9511 12.6208 79.7782 13.2745 79.7782 14.0093C79.7782 14.5064 79.8808 14.9602 80.0861 15.3708C80.3022 15.7706 80.6318 16.1434 81.0748 16.4892C81.5287 16.835 82.1014 17.1537 82.7929 17.4455C83.4953 17.7372 84.3328 18.0182 85.3053 18.2883C86.6452 18.6665 87.8014 19.088 88.7739 19.5526C89.7464 20.0172 90.546 20.5413 91.1727 21.1248C91.8103 21.6975 92.2803 22.3513 92.5829 23.086C92.8962 23.81 93.0529 24.6313 93.0529 25.5497C93.0529 26.5114 92.8584 27.3813 92.4694 28.1593C92.0804 28.9373 91.5239 29.6019 90.7999 30.1529C90.076 30.704 89.2061 31.1309 88.1904 31.4334C87.1854 31.7252 86.0617 31.871 84.819 31.871C83.7276 31.871 82.6525 31.7198 81.5935 31.4172C80.5454 31.1146 79.5891 30.6608 78.7246 30.0557C77.871 29.4506 77.1848 28.705 76.6661 27.8189C76.1583 26.9221 75.9043 25.8847 75.9043 24.7069H79.0164C79.0164 25.5173 79.1731 26.2143 79.4864 26.7978C79.7998 27.3705 80.2266 27.8459 80.7669 28.2241C81.318 28.6023 81.9393 28.8833 82.6309 29.067C83.3332 29.2399 84.0626 29.3263 84.819 29.3263C85.9104 29.3263 86.8343 29.175 87.5907 28.8725C88.3471 28.5699 88.9198 28.1377 89.3088 27.5758C89.7086 27.0139 89.9085 26.3494 89.9085 25.5822ZM114.481 19.7957V28.4348C114.189 28.8671 113.724 29.3533 113.087 29.8936C112.449 30.4231 111.568 30.8877 110.445 31.2875C109.332 31.6765 107.894 31.871 106.133 31.871C104.696 31.871 103.372 31.6225 102.162 31.1255C100.963 30.6176 99.9199 29.8828 99.0339 28.9211C98.1586 27.9486 97.4778 26.7708 96.9916 25.3877C96.5161 23.9937 96.2784 22.4161 96.2784 20.6548V18.8232C96.2784 17.0619 96.4837 15.4897 96.8943 14.1065C97.3158 12.7234 97.9317 11.551 98.7421 10.5893C99.5525 9.61679 100.547 8.88201 101.724 8.38495C102.902 7.87708 104.253 7.62315 105.777 7.62315C107.581 7.62315 109.089 7.93651 110.299 8.56324C111.52 9.17916 112.471 10.0328 113.151 11.1242C113.843 12.2156 114.286 13.4582 114.481 14.8521H111.352C111.212 13.9985 110.931 13.2205 110.509 12.5181C110.099 11.8157 109.51 11.2538 108.743 10.8324C107.976 10.4002 106.987 10.1841 105.777 10.1841C104.685 10.1841 103.74 10.384 102.94 10.7838C102.14 11.1836 101.481 11.7563 100.963 12.5019C100.444 13.2475 100.055 14.1498 99.7957 15.2087C99.5471 16.2677 99.4229 17.4617 99.4229 18.7908V20.6548C99.4229 22.0163 99.5795 23.2319 99.8929 24.3017C100.217 25.3714 100.676 26.2845 101.271 27.0409C101.865 27.7865 102.573 28.3538 103.394 28.7428C104.226 29.1318 105.144 29.3263 106.149 29.3263C107.262 29.3263 108.165 29.2345 108.856 29.0508C109.548 28.8563 110.088 28.6293 110.477 28.37C110.866 28.0999 111.163 27.8459 111.369 27.6082V22.3242H105.906V19.7957H114.481Z" fill="white"/>
<line x1="2.75967" y1="38.2848" x2="114.087" y2="38.2848" stroke="white" stroke-width="2.2" stroke-linecap="square"/>
<path d="M136.587 14.375V14.9609C136.587 15.7666 136.482 16.4893 136.272 17.1289C136.062 17.7686 135.762 18.313 135.372 18.7622C134.986 19.2114 134.522 19.5557 133.98 19.7949C133.438 20.0293 132.837 20.1465 132.178 20.1465C131.524 20.1465 130.926 20.0293 130.384 19.7949C129.847 19.5557 129.38 19.2114 128.985 18.7622C128.589 18.313 128.282 17.7686 128.062 17.1289C127.847 16.4893 127.74 15.7666 127.74 14.9609V14.375C127.74 13.5693 127.847 12.8491 128.062 12.2144C128.277 11.5747 128.58 11.0303 128.97 10.5811C129.366 10.127 129.832 9.78271 130.369 9.54834C130.911 9.30908 131.509 9.18945 132.164 9.18945C132.823 9.18945 133.423 9.30908 133.965 9.54834C134.507 9.78271 134.974 10.127 135.364 10.5811C135.755 11.0303 136.055 11.5747 136.265 12.2144C136.48 12.8491 136.587 13.5693 136.587 14.375ZM134.749 14.9609V14.3604C134.749 13.7646 134.69 13.2397 134.573 12.7856C134.461 12.3267 134.292 11.9434 134.068 11.6357C133.848 11.3232 133.577 11.0889 133.255 10.9326C132.933 10.7715 132.569 10.6909 132.164 10.6909C131.758 10.6909 131.397 10.7715 131.08 10.9326C130.762 11.0889 130.491 11.3232 130.267 11.6357C130.047 11.9434 129.878 12.3267 129.761 12.7856C129.644 13.2397 129.585 13.7646 129.585 14.3604V14.9609C129.585 15.5566 129.644 16.084 129.761 16.543C129.878 17.002 130.049 17.3901 130.274 17.7075C130.503 18.02 130.777 18.2568 131.094 18.418C131.412 18.5742 131.773 18.6523 132.178 18.6523C132.588 18.6523 132.952 18.5742 133.27 18.418C133.587 18.2568 133.855 18.02 134.075 17.7075C134.295 17.3901 134.461 17.002 134.573 16.543C134.69 16.084 134.749 15.5566 134.749 14.9609ZM140.521 20H138.748V11.5625C138.748 10.9229 138.875 10.3833 139.129 9.94385C139.388 9.50439 139.756 9.16992 140.235 8.94043C140.718 8.71094 141.292 8.59619 141.956 8.59619C142.347 8.59619 142.723 8.6377 143.084 8.7207C143.45 8.80371 143.829 8.90869 144.219 9.03564L143.948 10.4712C143.699 10.3882 143.423 10.3101 143.121 10.2368C142.818 10.1587 142.469 10.1196 142.073 10.1196C141.541 10.1196 141.148 10.2417 140.894 10.4858C140.645 10.7251 140.521 11.084 140.521 11.5625V20ZM142.11 12.0752V13.3643H137.532V12.0752H142.11ZM145.054 12.0752V20H143.289V12.0752H145.054ZM150.262 18.7402C150.55 18.7402 150.809 18.6841 151.038 18.5718C151.272 18.4546 151.46 18.2935 151.602 18.0884C151.749 17.8833 151.829 17.6465 151.844 17.3779H153.506C153.497 17.8906 153.345 18.3569 153.052 18.7769C152.759 19.1968 152.371 19.5312 151.888 19.7803C151.404 20.0244 150.87 20.1465 150.284 20.1465C149.678 20.1465 149.151 20.0439 148.702 19.8389C148.252 19.6289 147.879 19.3408 147.581 18.9746C147.283 18.6084 147.059 18.186 146.907 17.7075C146.761 17.229 146.688 16.7163 146.688 16.1694V15.9131C146.688 15.3662 146.761 14.8535 146.907 14.375C147.059 13.8916 147.283 13.4668 147.581 13.1006C147.879 12.7344 148.252 12.4487 148.702 12.2437C149.151 12.0337 149.676 11.9287 150.276 11.9287C150.911 11.9287 151.468 12.0557 151.946 12.3096C152.425 12.5586 152.801 12.9077 153.074 13.3569C153.353 13.8013 153.497 14.3188 153.506 14.9097H151.844C151.829 14.6167 151.756 14.353 151.624 14.1187C151.497 13.8794 151.316 13.689 151.082 13.5474C150.853 13.4058 150.577 13.335 150.254 13.335C149.898 13.335 149.603 13.4082 149.368 13.5547C149.134 13.6963 148.951 13.8916 148.819 14.1406C148.687 14.3848 148.592 14.6606 148.533 14.9683C148.479 15.271 148.453 15.5859 148.453 15.9131V16.1694C148.453 16.4966 148.479 16.814 148.533 17.1216C148.587 17.4292 148.68 17.7051 148.812 17.9492C148.948 18.1885 149.134 18.3813 149.368 18.5278C149.603 18.6694 149.9 18.7402 150.262 18.7402ZM156.751 12.0752V20H154.979V12.0752H156.751ZM154.861 9.99512C154.861 9.72656 154.949 9.50439 155.125 9.32861C155.306 9.14795 155.555 9.05762 155.872 9.05762C156.185 9.05762 156.431 9.14795 156.612 9.32861C156.792 9.50439 156.883 9.72656 156.883 9.99512C156.883 10.2588 156.792 10.4785 156.612 10.6543C156.431 10.8301 156.185 10.918 155.872 10.918C155.555 10.918 155.306 10.8301 155.125 10.6543C154.949 10.4785 154.861 10.2588 154.861 9.99512ZM160.435 13.7671V20H158.67V12.0752H160.333L160.435 13.7671ZM160.12 15.7446L159.549 15.7373C159.554 15.1758 159.632 14.6606 159.783 14.1919C159.939 13.7231 160.154 13.3203 160.428 12.9834C160.706 12.6465 161.038 12.3877 161.424 12.207C161.81 12.0215 162.239 11.9287 162.713 11.9287C163.094 11.9287 163.438 11.9824 163.746 12.0898C164.058 12.1924 164.324 12.3608 164.544 12.5952C164.769 12.8296 164.939 13.1348 165.057 13.5107C165.174 13.8818 165.232 14.3384 165.232 14.8804V20H163.46V14.873C163.46 14.4922 163.404 14.1919 163.292 13.9722C163.184 13.7476 163.025 13.5889 162.815 13.4961C162.61 13.3984 162.354 13.3496 162.046 13.3496C161.744 13.3496 161.473 13.4131 161.233 13.54C160.994 13.667 160.792 13.8403 160.625 14.0601C160.464 14.2798 160.34 14.5337 160.252 14.8218C160.164 15.1099 160.12 15.4175 160.12 15.7446ZM171.502 18.4106V14.6313C171.502 14.3481 171.451 14.104 171.348 13.8989C171.246 13.6938 171.089 13.5352 170.879 13.4229C170.674 13.3105 170.416 13.2544 170.103 13.2544C169.815 13.2544 169.566 13.3032 169.356 13.4009C169.146 13.4985 168.982 13.6304 168.865 13.7964C168.748 13.9624 168.689 14.1504 168.689 14.3604H166.932C166.932 14.0479 167.007 13.7451 167.159 13.4521C167.31 13.1592 167.53 12.8979 167.818 12.6685C168.106 12.439 168.45 12.2583 168.851 12.1265C169.251 11.9946 169.7 11.9287 170.198 11.9287C170.794 11.9287 171.321 12.0288 171.78 12.229C172.244 12.4292 172.608 12.7319 172.872 13.1372C173.14 13.5376 173.274 14.0405 173.274 14.646V18.1689C173.274 18.5303 173.299 18.855 173.348 19.1431C173.401 19.4263 173.477 19.6729 173.575 19.8828V20H171.766C171.683 19.8096 171.617 19.5679 171.568 19.2749C171.524 18.9771 171.502 18.689 171.502 18.4106ZM171.758 15.1807L171.773 16.272H170.506C170.179 16.272 169.891 16.3037 169.642 16.3672C169.393 16.4258 169.185 16.5137 169.019 16.6309C168.853 16.748 168.729 16.8896 168.646 17.0557C168.562 17.2217 168.521 17.4097 168.521 17.6196C168.521 17.8296 168.57 18.0225 168.667 18.1982C168.765 18.3691 168.907 18.5034 169.092 18.6011C169.283 18.6987 169.512 18.7476 169.781 18.7476C170.142 18.7476 170.457 18.6743 170.726 18.5278C170.999 18.3765 171.214 18.1934 171.37 17.9785C171.526 17.7588 171.609 17.5513 171.619 17.356L172.19 18.1396C172.132 18.3398 172.032 18.5547 171.89 18.7842C171.749 19.0137 171.563 19.2334 171.333 19.4434C171.109 19.6484 170.838 19.8169 170.521 19.9487C170.208 20.0806 169.847 20.1465 169.437 20.1465C168.919 20.1465 168.458 20.0439 168.052 19.8389C167.647 19.6289 167.33 19.3481 167.1 18.9966C166.871 18.6401 166.756 18.2373 166.756 17.7881C166.756 17.3682 166.834 16.9971 166.99 16.6748C167.151 16.3477 167.386 16.0742 167.693 15.8545C168.006 15.6348 168.387 15.4688 168.836 15.3564C169.285 15.2393 169.798 15.1807 170.374 15.1807H171.758ZM183.689 18.3594V8.75H185.462V20H183.858L183.689 18.3594ZM178.533 16.1255V15.9717C178.533 15.3711 178.604 14.8242 178.746 14.3311C178.887 13.833 179.092 13.4058 179.361 13.0493C179.629 12.688 179.957 12.4121 180.342 12.2217C180.728 12.0264 181.163 11.9287 181.646 11.9287C182.125 11.9287 182.544 12.0215 182.906 12.207C183.267 12.3926 183.575 12.6587 183.829 13.0054C184.083 13.3472 184.285 13.7573 184.437 14.2358C184.588 14.7095 184.695 15.2368 184.759 15.8179V16.3086C184.695 16.875 184.588 17.3926 184.437 17.8613C184.285 18.3301 184.083 18.7354 183.829 19.0771C183.575 19.4189 183.265 19.6826 182.898 19.8682C182.537 20.0537 182.115 20.1465 181.631 20.1465C181.153 20.1465 180.721 20.0464 180.335 19.8462C179.954 19.646 179.629 19.3652 179.361 19.0039C179.092 18.6426 178.887 18.2178 178.746 17.7295C178.604 17.2363 178.533 16.7017 178.533 16.1255ZM180.298 15.9717V16.1255C180.298 16.4868 180.33 16.8237 180.394 17.1362C180.462 17.4487 180.567 17.7246 180.708 17.9639C180.85 18.1982 181.033 18.3838 181.258 18.5205C181.487 18.6523 181.761 18.7183 182.078 18.7183C182.479 18.7183 182.808 18.6304 183.067 18.4546C183.326 18.2788 183.528 18.042 183.675 17.7441C183.826 17.4414 183.929 17.1045 183.982 16.7334V15.4077C183.953 15.1196 183.892 14.8511 183.799 14.6021C183.711 14.353 183.592 14.1357 183.44 13.9502C183.289 13.7598 183.101 13.6133 182.876 13.5107C182.657 13.4033 182.396 13.3496 182.093 13.3496C181.771 13.3496 181.497 13.418 181.272 13.5547C181.048 13.6914 180.862 13.8794 180.716 14.1187C180.574 14.3579 180.469 14.6362 180.401 14.9536C180.333 15.271 180.298 15.6104 180.298 15.9717ZM190.801 20.1465C190.215 20.1465 189.686 20.0513 189.212 19.8608C188.743 19.6655 188.343 19.3945 188.011 19.0479C187.684 18.7012 187.432 18.2935 187.256 17.8247C187.081 17.356 186.993 16.8506 186.993 16.3086V16.0156C186.993 15.3955 187.083 14.834 187.264 14.3311C187.444 13.8281 187.696 13.3984 188.018 13.042C188.34 12.6807 188.721 12.4048 189.161 12.2144C189.6 12.0239 190.076 11.9287 190.589 11.9287C191.155 11.9287 191.651 12.0239 192.076 12.2144C192.5 12.4048 192.852 12.6733 193.13 13.02C193.414 13.3618 193.624 13.7695 193.76 14.2432C193.902 14.7168 193.973 15.2393 193.973 15.8105V16.5649H187.85V15.2979H192.229V15.1587C192.22 14.8413 192.156 14.5435 192.039 14.2651C191.927 13.9868 191.753 13.7622 191.519 13.5913C191.285 13.4204 190.972 13.335 190.582 13.335C190.289 13.335 190.027 13.3984 189.798 13.5254C189.573 13.6475 189.385 13.8257 189.234 14.0601C189.083 14.2944 188.965 14.5776 188.882 14.9097C188.804 15.2368 188.765 15.6055 188.765 16.0156V16.3086C188.765 16.6553 188.812 16.9775 188.904 17.2754C189.002 17.5684 189.144 17.8247 189.329 18.0444C189.515 18.2642 189.739 18.4375 190.003 18.5645C190.267 18.6865 190.567 18.7476 190.904 18.7476C191.329 18.7476 191.707 18.6621 192.039 18.4912C192.371 18.3203 192.659 18.0786 192.903 17.7661L193.833 18.667C193.663 18.916 193.44 19.1553 193.167 19.3848C192.894 19.6094 192.559 19.7925 192.164 19.9341C191.773 20.0757 191.319 20.1465 190.801 20.1465ZM204.871 17.2534C204.871 17.0337 204.837 16.8384 204.769 16.6675C204.705 16.4966 204.59 16.3403 204.424 16.1987C204.258 16.0571 204.024 15.9204 203.721 15.7886C203.423 15.6519 203.042 15.5127 202.579 15.3711C202.071 15.2148 201.602 15.0415 201.172 14.8511C200.748 14.6558 200.376 14.4312 200.059 14.1772C199.742 13.9185 199.495 13.623 199.319 13.291C199.144 12.9541 199.056 12.5659 199.056 12.1265C199.056 11.6919 199.146 11.2964 199.327 10.9399C199.512 10.5835 199.773 10.2759 200.11 10.0171C200.452 9.75342 200.855 9.55078 201.319 9.40918C201.783 9.2627 202.295 9.18945 202.857 9.18945C203.648 9.18945 204.329 9.33594 204.9 9.62891C205.477 9.92188 205.918 10.3149 206.226 10.8081C206.539 11.3013 206.695 11.8457 206.695 12.4414H204.871C204.871 12.0898 204.795 11.7798 204.644 11.5112C204.498 11.2378 204.273 11.0229 203.97 10.8667C203.672 10.7104 203.294 10.6323 202.835 10.6323C202.4 10.6323 202.039 10.6982 201.751 10.8301C201.463 10.9619 201.248 11.1401 201.106 11.3647C200.965 11.5894 200.894 11.8433 200.894 12.1265C200.894 12.3267 200.94 12.5098 201.033 12.6758C201.126 12.8369 201.268 12.9883 201.458 13.1299C201.648 13.2666 201.888 13.396 202.176 13.5181C202.464 13.6401 202.803 13.7573 203.194 13.8696C203.785 14.0454 204.3 14.2407 204.739 14.4556C205.179 14.6655 205.545 14.9048 205.838 15.1733C206.131 15.4419 206.351 15.7471 206.497 16.0889C206.644 16.4258 206.717 16.8091 206.717 17.2388C206.717 17.688 206.626 18.0933 206.446 18.4546C206.265 18.811 206.006 19.1162 205.669 19.3701C205.337 19.6191 204.937 19.812 204.468 19.9487C204.004 20.0806 203.487 20.1465 202.916 20.1465C202.403 20.1465 201.897 20.0781 201.399 19.9414C200.906 19.8047 200.457 19.5972 200.052 19.3188C199.646 19.0356 199.324 18.6841 199.085 18.2642C198.846 17.8394 198.726 17.3438 198.726 16.7773H200.564C200.564 17.124 200.623 17.4194 200.74 17.6636C200.862 17.9077 201.031 18.1079 201.246 18.2642C201.46 18.4155 201.709 18.5278 201.993 18.6011C202.281 18.6743 202.588 18.7109 202.916 18.7109C203.345 18.7109 203.704 18.6499 203.992 18.5278C204.285 18.4058 204.505 18.2349 204.651 18.0151C204.798 17.7954 204.871 17.5415 204.871 17.2534ZM211.661 20.1465C211.075 20.1465 210.545 20.0513 210.071 19.8608C209.603 19.6655 209.202 19.3945 208.87 19.0479C208.543 18.7012 208.292 18.2935 208.116 17.8247C207.94 17.356 207.852 16.8506 207.852 16.3086V16.0156C207.852 15.3955 207.942 14.834 208.123 14.3311C208.304 13.8281 208.555 13.3984 208.877 13.042C209.2 12.6807 209.581 12.4048 210.02 12.2144C210.459 12.0239 210.936 11.9287 211.448 11.9287C212.015 11.9287 212.51 12.0239 212.935 12.2144C213.36 12.4048 213.711 12.6733 213.99 13.02C214.273 13.3618 214.483 13.7695 214.62 14.2432C214.761 14.7168 214.832 15.2393 214.832 15.8105V16.5649H208.709V15.2979H213.089V15.1587C213.079 14.8413 213.016 14.5435 212.898 14.2651C212.786 13.9868 212.613 13.7622 212.378 13.5913C212.144 13.4204 211.832 13.335 211.441 13.335C211.148 13.335 210.887 13.3984 210.657 13.5254C210.433 13.6475 210.245 13.8257 210.093 14.0601C209.942 14.2944 209.825 14.5776 209.742 14.9097C209.664 15.2368 209.625 15.6055 209.625 16.0156V16.3086C209.625 16.6553 209.671 16.9775 209.764 17.2754C209.861 17.5684 210.003 17.8247 210.188 18.0444C210.374 18.2642 210.599 18.4375 210.862 18.5645C211.126 18.6865 211.426 18.7476 211.763 18.7476C212.188 18.7476 212.566 18.6621 212.898 18.4912C213.23 18.3203 213.519 18.0786 213.763 17.7661L214.693 18.667C214.522 18.916 214.3 19.1553 214.026 19.3848C213.753 19.6094 213.418 19.7925 213.023 19.9341C212.632 20.0757 212.178 20.1465 211.661 20.1465ZM217.981 13.584V20H216.216V12.0752H217.901L217.981 13.584ZM220.406 12.0239L220.391 13.6646C220.284 13.645 220.167 13.6304 220.04 13.6206C219.917 13.6108 219.795 13.606 219.673 13.606C219.371 13.606 219.104 13.6499 218.875 13.7378C218.646 13.8208 218.453 13.9429 218.296 14.104C218.145 14.2603 218.028 14.4507 217.945 14.6753C217.862 14.8999 217.813 15.1514 217.798 15.4297L217.396 15.459C217.396 14.9609 217.444 14.4995 217.542 14.0747C217.64 13.6499 217.786 13.2764 217.981 12.9541C218.182 12.6318 218.431 12.3804 218.729 12.1997C219.031 12.019 219.38 11.9287 219.776 11.9287C219.883 11.9287 219.998 11.9385 220.12 11.958C220.247 11.9775 220.342 11.9995 220.406 12.0239ZM224.222 18.6011L226.163 12.0752H227.994L225.24 20H224.097L224.222 18.6011ZM222.735 12.0752L224.712 18.6304L224.808 20H223.665L220.896 12.0752H222.735ZM230.975 12.0752V20H229.202V12.0752H230.975ZM229.085 9.99512C229.085 9.72656 229.173 9.50439 229.349 9.32861C229.529 9.14795 229.778 9.05762 230.096 9.05762C230.408 9.05762 230.655 9.14795 230.835 9.32861C231.016 9.50439 231.106 9.72656 231.106 9.99512C231.106 10.2588 231.016 10.4785 230.835 10.6543C230.655 10.8301 230.408 10.918 230.096 10.918C229.778 10.918 229.529 10.8301 229.349 10.6543C229.173 10.4785 229.085 10.2588 229.085 9.99512ZM236.146 18.7402C236.434 18.7402 236.692 18.6841 236.922 18.5718C237.156 18.4546 237.344 18.2935 237.486 18.0884C237.632 17.8833 237.713 17.6465 237.728 17.3779H239.39C239.38 17.8906 239.229 18.3569 238.936 18.7769C238.643 19.1968 238.255 19.5312 237.771 19.7803C237.288 20.0244 236.753 20.1465 236.167 20.1465C235.562 20.1465 235.035 20.0439 234.585 19.8389C234.136 19.6289 233.763 19.3408 233.465 18.9746C233.167 18.6084 232.942 18.186 232.791 17.7075C232.645 17.229 232.571 16.7163 232.571 16.1694V15.9131C232.571 15.3662 232.645 14.8535 232.791 14.375C232.942 13.8916 233.167 13.4668 233.465 13.1006C233.763 12.7344 234.136 12.4487 234.585 12.2437C235.035 12.0337 235.56 11.9287 236.16 11.9287C236.795 11.9287 237.352 12.0557 237.83 12.3096C238.309 12.5586 238.685 12.9077 238.958 13.3569C239.236 13.8013 239.38 14.3188 239.39 14.9097H237.728C237.713 14.6167 237.64 14.353 237.508 14.1187C237.381 13.8794 237.2 13.689 236.966 13.5474C236.736 13.4058 236.46 13.335 236.138 13.335C235.782 13.335 235.486 13.4082 235.252 13.5547C235.018 13.6963 234.834 13.8916 234.703 14.1406C234.571 14.3848 234.476 14.6606 234.417 14.9683C234.363 15.271 234.336 15.5859 234.336 15.9131V16.1694C234.336 16.4966 234.363 16.814 234.417 17.1216C234.471 17.4292 234.563 17.7051 234.695 17.9492C234.832 18.1885 235.018 18.3813 235.252 18.5278C235.486 18.6694 235.784 18.7402 236.146 18.7402ZM242.635 12.0752V20H240.862V12.0752H242.635ZM240.745 9.99512C240.745 9.72656 240.833 9.50439 241.009 9.32861C241.189 9.14795 241.438 9.05762 241.756 9.05762C242.068 9.05762 242.315 9.14795 242.496 9.32861C242.676 9.50439 242.767 9.72656 242.767 9.99512C242.767 10.2588 242.676 10.4785 242.496 10.6543C242.315 10.8301 242.068 10.918 241.756 10.918C241.438 10.918 241.189 10.8301 241.009 10.6543C240.833 10.4785 240.745 10.2588 240.745 9.99512ZM244.231 16.1255V15.957C244.231 15.3857 244.314 14.856 244.48 14.3677C244.646 13.8745 244.886 13.4473 245.198 13.0859C245.516 12.7197 245.901 12.4365 246.355 12.2363C246.814 12.0312 247.332 11.9287 247.908 11.9287C248.489 11.9287 249.007 12.0312 249.461 12.2363C249.92 12.4365 250.308 12.7197 250.625 13.0859C250.943 13.4473 251.185 13.8745 251.351 14.3677C251.517 14.856 251.6 15.3857 251.6 15.957V16.1255C251.6 16.6968 251.517 17.2266 251.351 17.7148C251.185 18.2031 250.943 18.6304 250.625 18.9966C250.308 19.3579 249.922 19.6411 249.468 19.8462C249.014 20.0464 248.499 20.1465 247.923 20.1465C247.342 20.1465 246.822 20.0464 246.363 19.8462C245.909 19.6411 245.523 19.3579 245.206 18.9966C244.888 18.6304 244.646 18.2031 244.48 17.7148C244.314 17.2266 244.231 16.6968 244.231 16.1255ZM245.997 15.957V16.1255C245.997 16.4819 246.033 16.8188 246.106 17.1362C246.18 17.4536 246.294 17.7319 246.451 17.9712C246.607 18.2104 246.807 18.3984 247.051 18.5352C247.295 18.6719 247.586 18.7402 247.923 18.7402C248.25 18.7402 248.533 18.6719 248.772 18.5352C249.017 18.3984 249.217 18.2104 249.373 17.9712C249.529 17.7319 249.644 17.4536 249.717 17.1362C249.795 16.8188 249.834 16.4819 249.834 16.1255V15.957C249.834 15.6055 249.795 15.2734 249.717 14.9609C249.644 14.6436 249.527 14.3628 249.366 14.1187C249.209 13.8745 249.009 13.6841 248.765 13.5474C248.526 13.4058 248.24 13.335 247.908 13.335C247.576 13.335 247.288 13.4058 247.044 13.5474C246.805 13.6841 246.607 13.8745 246.451 14.1187C246.294 14.3628 246.18 14.6436 246.106 14.9609C246.033 15.2734 245.997 15.6055 245.997 15.957ZM257.525 17.854C257.525 17.6782 257.481 17.5195 257.393 17.3779C257.305 17.2314 257.137 17.0996 256.888 16.9824C256.644 16.8652 256.282 16.7578 255.804 16.6602C255.384 16.5674 254.998 16.4575 254.646 16.3306C254.3 16.1987 254.002 16.04 253.753 15.8545C253.504 15.6689 253.311 15.4492 253.174 15.1953C253.038 14.9414 252.969 14.6484 252.969 14.3164C252.969 13.9941 253.04 13.689 253.182 13.4009C253.323 13.1128 253.526 12.8589 253.79 12.6392C254.053 12.4194 254.373 12.2461 254.749 12.1191C255.13 11.9922 255.555 11.9287 256.023 11.9287C256.688 11.9287 257.256 12.041 257.73 12.2656C258.208 12.4854 258.575 12.7856 258.829 13.1665C259.083 13.5425 259.209 13.9673 259.209 14.4409H257.444C257.444 14.231 257.391 14.0356 257.283 13.855C257.181 13.6694 257.024 13.5205 256.814 13.4082C256.604 13.291 256.341 13.2324 256.023 13.2324C255.721 13.2324 255.469 13.2812 255.269 13.3789C255.074 13.4717 254.927 13.5938 254.83 13.7451C254.737 13.8965 254.69 14.0625 254.69 14.2432C254.69 14.375 254.715 14.4946 254.764 14.6021C254.817 14.7046 254.905 14.7998 255.027 14.8877C255.149 14.9707 255.315 15.0488 255.525 15.1221C255.74 15.1953 256.009 15.2661 256.331 15.3345C256.937 15.4614 257.457 15.625 257.891 15.8252C258.331 16.0205 258.667 16.2744 258.902 16.5869C259.136 16.8945 259.253 17.2852 259.253 17.7588C259.253 18.1104 259.178 18.4326 259.026 18.7256C258.88 19.0137 258.665 19.2651 258.382 19.48C258.099 19.6899 257.759 19.8535 257.364 19.9707C256.973 20.0879 256.534 20.1465 256.045 20.1465C255.328 20.1465 254.72 20.0195 254.222 19.7656C253.724 19.5068 253.345 19.1772 253.086 18.7769C252.833 18.3716 252.706 17.9517 252.706 17.5171H254.412C254.432 17.8442 254.522 18.1055 254.683 18.3008C254.849 18.4912 255.054 18.6304 255.298 18.7183C255.547 18.8013 255.804 18.8428 256.067 18.8428C256.385 18.8428 256.651 18.8013 256.866 18.7183C257.081 18.6304 257.244 18.5132 257.356 18.3667C257.469 18.2153 257.525 18.0444 257.525 17.854ZM272.898 14.5508V18.623C272.747 18.8232 272.51 19.043 272.188 19.2822C271.871 19.5166 271.448 19.7192 270.921 19.8901C270.394 20.061 269.737 20.1465 268.951 20.1465C268.282 20.1465 267.669 20.0342 267.112 19.8096C266.556 19.5801 266.075 19.2456 265.669 18.8062C265.269 18.3667 264.959 17.832 264.739 17.2021C264.52 16.5674 264.41 15.8447 264.41 15.0342V14.2944C264.41 13.4888 264.51 12.771 264.71 12.1411C264.915 11.5063 265.208 10.9692 265.589 10.5298C265.97 10.0903 266.429 9.7583 266.966 9.53369C267.508 9.3042 268.121 9.18945 268.804 9.18945C269.678 9.18945 270.401 9.33594 270.972 9.62891C271.548 9.91699 271.993 10.3174 272.305 10.8301C272.618 11.3428 272.815 11.9287 272.898 12.5879H271.097C271.038 12.2168 270.923 11.8848 270.752 11.5918C270.586 11.2988 270.347 11.0693 270.035 10.9033C269.727 10.7324 269.327 10.647 268.833 10.647C268.409 10.647 268.035 10.7275 267.713 10.8887C267.391 11.0498 267.122 11.2866 266.907 11.5991C266.697 11.9116 266.539 12.2925 266.431 12.7417C266.324 13.1909 266.27 13.7036 266.27 14.2798V15.0342C266.27 15.6201 266.331 16.1401 266.453 16.5942C266.58 17.0483 266.761 17.4316 266.995 17.7441C267.234 18.0566 267.525 18.2935 267.867 18.4546C268.208 18.6108 268.594 18.689 269.024 18.689C269.444 18.689 269.788 18.6548 270.057 18.5864C270.325 18.5132 270.538 18.4277 270.694 18.3301C270.855 18.2275 270.979 18.1299 271.067 18.0371V15.9204H268.848V14.5508H272.898ZM278.252 20.1465C277.667 20.1465 277.137 20.0513 276.663 19.8608C276.194 19.6655 275.794 19.3945 275.462 19.0479C275.135 18.7012 274.883 18.2935 274.708 17.8247C274.532 17.356 274.444 16.8506 274.444 16.3086V16.0156C274.444 15.3955 274.534 14.834 274.715 14.3311C274.896 13.8281 275.147 13.3984 275.469 13.042C275.792 12.6807 276.172 12.4048 276.612 12.2144C277.051 12.0239 277.527 11.9287 278.04 11.9287C278.606 11.9287 279.102 12.0239 279.527 12.2144C279.952 12.4048 280.303 12.6733 280.582 13.02C280.865 13.3618 281.075 13.7695 281.211 14.2432C281.353 14.7168 281.424 15.2393 281.424 15.8105V16.5649H275.301V15.2979H279.681V15.1587C279.671 14.8413 279.607 14.5435 279.49 14.2651C279.378 13.9868 279.205 13.7622 278.97 13.5913C278.736 13.4204 278.423 13.335 278.033 13.335C277.74 13.335 277.479 13.3984 277.249 13.5254C277.024 13.6475 276.836 13.8257 276.685 14.0601C276.534 14.2944 276.417 14.5776 276.333 14.9097C276.255 15.2368 276.216 15.6055 276.216 16.0156V16.3086C276.216 16.6553 276.263 16.9775 276.355 17.2754C276.453 17.5684 276.595 17.8247 276.78 18.0444C276.966 18.2642 277.19 18.4375 277.454 18.5645C277.718 18.6865 278.018 18.7476 278.355 18.7476C278.78 18.7476 279.158 18.6621 279.49 18.4912C279.822 18.3203 280.11 18.0786 280.354 17.7661L281.285 18.667C281.114 18.916 280.892 19.1553 280.618 19.3848C280.345 19.6094 280.01 19.7925 279.615 19.9341C279.224 20.0757 278.77 20.1465 278.252 20.1465ZM284.551 13.7671V20H282.786V12.0752H284.449L284.551 13.7671ZM284.236 15.7446L283.665 15.7373C283.67 15.1758 283.748 14.6606 283.899 14.1919C284.056 13.7231 284.271 13.3203 284.544 12.9834C284.822 12.6465 285.154 12.3877 285.54 12.207C285.926 12.0215 286.355 11.9287 286.829 11.9287C287.21 11.9287 287.554 11.9824 287.862 12.0898C288.174 12.1924 288.44 12.3608 288.66 12.5952C288.885 12.8296 289.056 13.1348 289.173 13.5107C289.29 13.8818 289.349 14.3384 289.349 14.8804V20H287.576V14.873C287.576 14.4922 287.52 14.1919 287.408 13.9722C287.3 13.7476 287.142 13.5889 286.932 13.4961C286.727 13.3984 286.47 13.3496 286.163 13.3496C285.86 13.3496 285.589 13.4131 285.35 13.54C285.11 13.667 284.908 13.8403 284.742 14.0601C284.581 14.2798 284.456 14.5337 284.368 14.8218C284.28 15.1099 284.236 15.4175 284.236 15.7446ZM294.644 20.1465C294.058 20.1465 293.528 20.0513 293.055 19.8608C292.586 19.6655 292.186 19.3945 291.854 19.0479C291.526 18.7012 291.275 18.2935 291.099 17.8247C290.923 17.356 290.835 16.8506 290.835 16.3086V16.0156C290.835 15.3955 290.926 14.834 291.106 14.3311C291.287 13.8281 291.539 13.3984 291.861 13.042C292.183 12.6807 292.564 12.4048 293.003 12.2144C293.443 12.0239 293.919 11.9287 294.432 11.9287C294.998 11.9287 295.494 12.0239 295.918 12.2144C296.343 12.4048 296.695 12.6733 296.973 13.02C297.256 13.3618 297.466 13.7695 297.603 14.2432C297.745 14.7168 297.815 15.2393 297.815 15.8105V16.5649H291.692V15.2979H296.072V15.1587C296.062 14.8413 295.999 14.5435 295.882 14.2651C295.77 13.9868 295.596 13.7622 295.362 13.5913C295.127 13.4204 294.815 13.335 294.424 13.335C294.131 13.335 293.87 13.3984 293.641 13.5254C293.416 13.6475 293.228 13.8257 293.077 14.0601C292.925 14.2944 292.808 14.5776 292.725 14.9097C292.647 15.2368 292.608 15.6055 292.608 16.0156V16.3086C292.608 16.6553 292.654 16.9775 292.747 17.2754C292.845 17.5684 292.986 17.8247 293.172 18.0444C293.357 18.2642 293.582 18.4375 293.846 18.5645C294.109 18.6865 294.41 18.7476 294.747 18.7476C295.171 18.7476 295.55 18.6621 295.882 18.4912C296.214 18.3203 296.502 18.0786 296.746 17.7661L297.676 18.667C297.505 18.916 297.283 19.1553 297.01 19.3848C296.736 19.6094 296.402 19.7925 296.006 19.9341C295.616 20.0757 295.162 20.1465 294.644 20.1465ZM300.965 13.584V20H299.2V12.0752H300.884L300.965 13.584ZM303.389 12.0239L303.375 13.6646C303.267 13.645 303.15 13.6304 303.023 13.6206C302.901 13.6108 302.779 13.606 302.657 13.606C302.354 13.606 302.088 13.6499 301.858 13.7378C301.629 13.8208 301.436 13.9429 301.28 14.104C301.128 14.2603 301.011 14.4507 300.928 14.6753C300.845 14.8999 300.796 15.1514 300.782 15.4297L300.379 15.459C300.379 14.9609 300.428 14.4995 300.525 14.0747C300.623 13.6499 300.77 13.2764 300.965 12.9541C301.165 12.6318 301.414 12.3804 301.712 12.1997C302.015 12.019 302.364 11.9287 302.759 11.9287C302.867 11.9287 302.981 11.9385 303.104 11.958C303.23 11.9775 303.326 11.9995 303.389 12.0239ZM308.699 18.4106V14.6313C308.699 14.3481 308.648 14.104 308.545 13.8989C308.443 13.6938 308.287 13.5352 308.077 13.4229C307.872 13.3105 307.613 13.2544 307.3 13.2544C307.012 13.2544 306.763 13.3032 306.553 13.4009C306.343 13.4985 306.18 13.6304 306.062 13.7964C305.945 13.9624 305.887 14.1504 305.887 14.3604H304.129C304.129 14.0479 304.205 13.7451 304.356 13.4521C304.507 13.1592 304.727 12.8979 305.015 12.6685C305.303 12.439 305.647 12.2583 306.048 12.1265C306.448 11.9946 306.897 11.9287 307.396 11.9287C307.991 11.9287 308.519 12.0288 308.978 12.229C309.441 12.4292 309.805 12.7319 310.069 13.1372C310.337 13.5376 310.472 14.0405 310.472 14.646V18.1689C310.472 18.5303 310.496 18.855 310.545 19.1431C310.599 19.4263 310.674 19.6729 310.772 19.8828V20H308.963C308.88 19.8096 308.814 19.5679 308.765 19.2749C308.721 18.9771 308.699 18.689 308.699 18.4106ZM308.956 15.1807L308.97 16.272H307.703C307.376 16.272 307.088 16.3037 306.839 16.3672C306.59 16.4258 306.382 16.5137 306.216 16.6309C306.05 16.748 305.926 16.8896 305.843 17.0557C305.76 17.2217 305.718 17.4097 305.718 17.6196C305.718 17.8296 305.767 18.0225 305.865 18.1982C305.962 18.3691 306.104 18.5034 306.29 18.6011C306.48 18.6987 306.709 18.7476 306.978 18.7476C307.339 18.7476 307.654 18.6743 307.923 18.5278C308.196 18.3765 308.411 18.1934 308.567 17.9785C308.724 17.7588 308.807 17.5513 308.816 17.356L309.388 18.1396C309.329 18.3398 309.229 18.5547 309.087 18.7842C308.946 19.0137 308.76 19.2334 308.531 19.4434C308.306 19.6484 308.035 19.8169 307.718 19.9487C307.405 20.0806 307.044 20.1465 306.634 20.1465C306.116 20.1465 305.655 20.0439 305.25 19.8389C304.844 19.6289 304.527 19.3481 304.297 18.9966C304.068 18.6401 303.953 18.2373 303.953 17.7881C303.953 17.3682 304.031 16.9971 304.188 16.6748C304.349 16.3477 304.583 16.0742 304.891 15.8545C305.203 15.6348 305.584 15.4688 306.033 15.3564C306.482 15.2393 306.995 15.1807 307.571 15.1807H308.956ZM314.207 8.75V20H312.435V8.75H314.207ZM319.634 20.1465C319.048 20.1465 318.519 20.0513 318.045 19.8608C317.576 19.6655 317.176 19.3945 316.844 19.0479C316.517 18.7012 316.265 18.2935 316.089 17.8247C315.914 17.356 315.826 16.8506 315.826 16.3086V16.0156C315.826 15.3955 315.916 14.834 316.097 14.3311C316.277 13.8281 316.529 13.3984 316.851 13.042C317.173 12.6807 317.554 12.4048 317.994 12.2144C318.433 12.0239 318.909 11.9287 319.422 11.9287C319.988 11.9287 320.484 12.0239 320.909 12.2144C321.333 12.4048 321.685 12.6733 321.963 13.02C322.247 13.3618 322.457 13.7695 322.593 14.2432C322.735 14.7168 322.806 15.2393 322.806 15.8105V16.5649H316.683V15.2979H321.062V15.1587C321.053 14.8413 320.989 14.5435 320.872 14.2651C320.76 13.9868 320.586 13.7622 320.352 13.5913C320.118 13.4204 319.805 13.335 319.415 13.335C319.122 13.335 318.86 13.3984 318.631 13.5254C318.406 13.6475 318.218 13.8257 318.067 14.0601C317.916 14.2944 317.798 14.5776 317.715 14.9097C317.637 15.2368 317.598 15.6055 317.598 16.0156V16.3086C317.598 16.6553 317.645 16.9775 317.737 17.2754C317.835 17.5684 317.977 17.8247 318.162 18.0444C318.348 18.2642 318.572 18.4375 318.836 18.5645C319.1 18.6865 319.4 18.7476 319.737 18.7476C320.162 18.7476 320.54 18.6621 320.872 18.4912C321.204 18.3203 321.492 18.0786 321.736 17.7661L322.667 18.667C322.496 18.916 322.273 19.1553 322 19.3848C321.727 19.6094 321.392 19.7925 320.997 19.9341C320.606 20.0757 320.152 20.1465 319.634 20.1465ZM328.628 17.854C328.628 17.6782 328.584 17.5195 328.497 17.3779C328.409 17.2314 328.24 17.0996 327.991 16.9824C327.747 16.8652 327.386 16.7578 326.907 16.6602C326.487 16.5674 326.102 16.4575 325.75 16.3306C325.403 16.1987 325.105 16.04 324.856 15.8545C324.607 15.6689 324.415 15.4492 324.278 15.1953C324.141 14.9414 324.073 14.6484 324.073 14.3164C324.073 13.9941 324.144 13.689 324.285 13.4009C324.427 13.1128 324.629 12.8589 324.893 12.6392C325.157 12.4194 325.477 12.2461 325.853 12.1191C326.233 11.9922 326.658 11.9287 327.127 11.9287C327.791 11.9287 328.36 12.041 328.833 12.2656C329.312 12.4854 329.678 12.7856 329.932 13.1665C330.186 13.5425 330.313 13.9673 330.313 14.4409H328.548C328.548 14.231 328.494 14.0356 328.387 13.855C328.284 13.6694 328.128 13.5205 327.918 13.4082C327.708 13.291 327.444 13.2324 327.127 13.2324C326.824 13.2324 326.573 13.2812 326.373 13.3789C326.177 13.4717 326.031 13.5938 325.933 13.7451C325.84 13.8965 325.794 14.0625 325.794 14.2432C325.794 14.375 325.818 14.4946 325.867 14.6021C325.921 14.7046 326.009 14.7998 326.131 14.8877C326.253 14.9707 326.419 15.0488 326.629 15.1221C326.844 15.1953 327.112 15.2661 327.435 15.3345C328.04 15.4614 328.56 15.625 328.995 15.8252C329.434 16.0205 329.771 16.2744 330.005 16.5869C330.24 16.8945 330.357 17.2852 330.357 17.7588C330.357 18.1104 330.281 18.4326 330.13 18.7256C329.983 19.0137 329.769 19.2651 329.485 19.48C329.202 19.6899 328.863 19.8535 328.467 19.9707C328.077 20.0879 327.637 20.1465 327.149 20.1465C326.431 20.1465 325.823 20.0195 325.325 19.7656C324.827 19.5068 324.449 19.1772 324.19 18.7769C323.936 18.3716 323.809 17.9517 323.809 17.5171H325.516C325.535 17.8442 325.625 18.1055 325.787 18.3008C325.953 18.4912 326.158 18.6304 326.402 18.7183C326.651 18.8013 326.907 18.8428 327.171 18.8428C327.488 18.8428 327.754 18.8013 327.969 18.7183C328.184 18.6304 328.348 18.5132 328.46 18.3667C328.572 18.2153 328.628 18.0444 328.628 17.854ZM133.306 35.1655C133.306 34.9995 133.282 34.8506 133.233 34.7188C133.184 34.582 133.094 34.4551 132.962 34.3379C132.83 34.2207 132.64 34.1035 132.391 33.9863C132.146 33.8643 131.824 33.7373 131.424 33.6055C130.955 33.4492 130.503 33.2734 130.069 33.0781C129.634 32.8779 129.246 32.646 128.904 32.3823C128.562 32.1138 128.292 31.8013 128.091 31.4448C127.891 31.0835 127.791 30.6636 127.791 30.1851C127.791 29.7261 127.894 29.3135 128.099 28.9473C128.304 28.5762 128.589 28.2612 128.956 28.0024C129.327 27.7388 129.761 27.5386 130.259 27.4019C130.757 27.2603 131.302 27.1895 131.893 27.1895C132.674 27.1895 133.362 27.3262 133.958 27.5996C134.559 27.8682 135.027 28.2515 135.364 28.7495C135.706 29.2427 135.877 29.8262 135.877 30.5H133.321C133.321 30.2314 133.265 29.9946 133.152 29.7896C133.045 29.5845 132.881 29.4233 132.662 29.3062C132.442 29.189 132.166 29.1304 131.834 29.1304C131.512 29.1304 131.241 29.1792 131.021 29.2769C130.801 29.3745 130.635 29.5063 130.523 29.6724C130.411 29.8335 130.354 30.0117 130.354 30.207C130.354 30.3682 130.398 30.5146 130.486 30.6465C130.579 30.7734 130.708 30.8931 130.875 31.0054C131.045 31.1177 131.25 31.2251 131.49 31.3276C131.734 31.4302 132.007 31.5303 132.31 31.6279C132.876 31.8086 133.379 32.0112 133.819 32.2358C134.263 32.4556 134.637 32.707 134.939 32.9902C135.247 33.2686 135.479 33.5859 135.635 33.9424C135.796 34.2988 135.877 34.7017 135.877 35.1509C135.877 35.6294 135.784 36.0542 135.599 36.4253C135.413 36.7964 135.147 37.1113 134.8 37.3701C134.454 37.624 134.039 37.8169 133.555 37.9487C133.072 38.0806 132.532 38.1465 131.937 38.1465C131.39 38.1465 130.85 38.0781 130.318 37.9414C129.791 37.7998 129.312 37.585 128.882 37.2969C128.453 37.0039 128.108 36.6304 127.85 36.1763C127.596 35.7173 127.469 35.1729 127.469 34.543H130.047C130.047 34.8555 130.088 35.1191 130.171 35.334C130.254 35.5488 130.376 35.7222 130.538 35.854C130.699 35.981 130.896 36.0737 131.131 36.1323C131.365 36.186 131.634 36.2129 131.937 36.2129C132.264 36.2129 132.527 36.1665 132.728 36.0737C132.928 35.9761 133.074 35.8491 133.167 35.6929C133.26 35.5317 133.306 35.356 133.306 35.1655ZM140.923 38.1465C140.279 38.1465 139.703 38.0464 139.195 37.8462C138.687 37.6411 138.257 37.3604 137.906 37.0039C137.559 36.6475 137.293 36.2373 137.107 35.7734C136.927 35.3096 136.836 34.8188 136.836 34.3013V34.0229C136.836 33.4419 136.917 32.9048 137.078 32.4116C137.239 31.9136 137.479 31.479 137.796 31.1079C138.113 30.7368 138.511 30.4487 138.99 30.2437C139.468 30.0337 140.025 29.9287 140.66 29.9287C141.221 29.9287 141.724 30.019 142.168 30.1997C142.613 30.3804 142.989 30.6392 143.296 30.9761C143.609 31.313 143.846 31.7207 144.007 32.1992C144.173 32.6777 144.256 33.2148 144.256 33.8105V34.814H137.781V33.2686H141.846V33.0781C141.851 32.8145 141.805 32.5898 141.707 32.4043C141.614 32.2188 141.478 32.0771 141.297 31.9795C141.116 31.8818 140.896 31.833 140.638 31.833C140.369 31.833 140.147 31.8916 139.971 32.0088C139.8 32.126 139.666 32.2871 139.568 32.4922C139.476 32.6924 139.41 32.9243 139.371 33.188C139.332 33.4517 139.312 33.73 139.312 34.0229V34.3013C139.312 34.5942 139.351 34.8604 139.429 35.0996C139.512 35.3389 139.629 35.5439 139.781 35.7148C139.937 35.8809 140.123 36.0103 140.337 36.103C140.557 36.1958 140.806 36.2422 141.084 36.2422C141.421 36.2422 141.753 36.1787 142.081 36.0518C142.408 35.9248 142.688 35.7148 142.923 35.4219L144.043 36.7549C143.882 36.9844 143.653 37.2065 143.355 37.4214C143.062 37.6362 142.71 37.812 142.3 37.9487C141.89 38.0806 141.431 38.1465 140.923 38.1465ZM149.815 36.1836V26.75H152.298V38H150.071L149.815 36.1836ZM144.952 34.1328V33.979C144.952 33.3784 145.018 32.8315 145.149 32.3384C145.281 31.8403 145.477 31.4131 145.735 31.0566C145.994 30.6953 146.316 30.417 146.702 30.2217C147.088 30.0264 147.532 29.9287 148.035 29.9287C148.484 29.9287 148.877 30.0337 149.214 30.2437C149.551 30.4487 149.839 30.7368 150.079 31.1079C150.318 31.479 150.513 31.9136 150.665 32.4116C150.816 32.9048 150.931 33.437 151.009 34.0083V34.1914C150.931 34.7285 150.816 35.2363 150.665 35.7148C150.513 36.1885 150.318 36.6084 150.079 36.9746C149.839 37.3408 149.549 37.6289 149.207 37.8389C148.87 38.0439 148.475 38.1465 148.021 38.1465C147.518 38.1465 147.073 38.0464 146.688 37.8462C146.307 37.646 145.987 37.3652 145.728 37.0039C145.474 36.6426 145.281 36.2178 145.149 35.7295C145.018 35.2412 144.952 34.709 144.952 34.1328ZM147.42 33.979V34.1328C147.42 34.4307 147.439 34.7065 147.479 34.9604C147.518 35.2144 147.583 35.439 147.676 35.6343C147.774 35.8247 147.901 35.9736 148.057 36.0811C148.218 36.1885 148.416 36.2422 148.65 36.2422C148.968 36.2422 149.229 36.1665 149.434 36.0151C149.644 35.8638 149.798 35.6489 149.896 35.3706C149.998 35.0923 150.042 34.7651 150.027 34.3892V33.8105C150.037 33.4883 150.015 33.2051 149.961 32.9609C149.908 32.7119 149.822 32.5044 149.705 32.3384C149.593 32.1724 149.449 32.0479 149.273 31.9648C149.102 31.877 148.899 31.833 148.665 31.833C148.436 31.833 148.24 31.8867 148.079 31.9941C147.923 32.1016 147.796 32.2529 147.698 32.4482C147.601 32.6387 147.53 32.8657 147.486 33.1294C147.442 33.3882 147.42 33.6714 147.42 33.979ZM157.535 38.1465C156.89 38.1465 156.314 38.0464 155.806 37.8462C155.298 37.6411 154.869 37.3604 154.517 37.0039C154.17 36.6475 153.904 36.2373 153.719 35.7734C153.538 35.3096 153.448 34.8188 153.448 34.3013V34.0229C153.448 33.4419 153.528 32.9048 153.689 32.4116C153.851 31.9136 154.09 31.479 154.407 31.1079C154.725 30.7368 155.123 30.4487 155.601 30.2437C156.08 30.0337 156.636 29.9287 157.271 29.9287C157.833 29.9287 158.335 30.019 158.78 30.1997C159.224 30.3804 159.6 30.6392 159.908 30.9761C160.22 31.313 160.457 31.7207 160.618 32.1992C160.784 32.6777 160.867 33.2148 160.867 33.8105V34.814H154.393V33.2686H158.458V33.0781C158.462 32.8145 158.416 32.5898 158.318 32.4043C158.226 32.2188 158.089 32.0771 157.908 31.9795C157.728 31.8818 157.508 31.833 157.249 31.833C156.98 31.833 156.758 31.8916 156.583 32.0088C156.412 32.126 156.277 32.2871 156.18 32.4922C156.087 32.6924 156.021 32.9243 155.982 33.188C155.943 33.4517 155.923 33.73 155.923 34.0229V34.3013C155.923 34.5942 155.962 34.8604 156.041 35.0996C156.124 35.3389 156.241 35.5439 156.392 35.7148C156.548 35.8809 156.734 36.0103 156.949 36.103C157.168 36.1958 157.417 36.2422 157.696 36.2422C158.033 36.2422 158.365 36.1787 158.692 36.0518C159.019 35.9248 159.3 35.7148 159.534 35.4219L160.655 36.7549C160.494 36.9844 160.264 37.2065 159.966 37.4214C159.673 37.6362 159.322 37.812 158.912 37.9487C158.501 38.0806 158.042 38.1465 157.535 38.1465ZM174.747 32.4556V32.8877C174.747 33.7031 174.632 34.4355 174.402 35.085C174.178 35.7295 173.858 36.2812 173.443 36.7402C173.028 37.1943 172.537 37.5435 171.971 37.7876C171.404 38.0269 170.779 38.1465 170.096 38.1465C169.407 38.1465 168.777 38.0269 168.206 37.7876C167.64 37.5435 167.146 37.1943 166.727 36.7402C166.312 36.2812 165.989 35.7295 165.76 35.085C165.535 34.4355 165.423 33.7031 165.423 32.8877V32.4556C165.423 31.6401 165.535 30.9077 165.76 30.2583C165.989 29.6089 166.309 29.0571 166.719 28.603C167.134 28.144 167.625 27.7949 168.191 27.5557C168.763 27.3115 169.393 27.1895 170.081 27.1895C170.765 27.1895 171.39 27.3115 171.956 27.5557C172.527 27.7949 173.021 28.144 173.436 28.603C173.851 29.0571 174.173 29.6089 174.402 30.2583C174.632 30.9077 174.747 31.6401 174.747 32.4556ZM172.139 32.8877V32.4409C172.139 31.9136 172.093 31.4497 172 31.0493C171.912 30.644 171.78 30.3047 171.604 30.0312C171.429 29.7578 171.211 29.5527 170.953 29.416C170.699 29.2744 170.408 29.2036 170.081 29.2036C169.739 29.2036 169.441 29.2744 169.188 29.416C168.934 29.5527 168.721 29.7578 168.55 30.0312C168.379 30.3047 168.25 30.644 168.162 31.0493C168.079 31.4497 168.038 31.9136 168.038 32.4409V32.8877C168.038 33.4102 168.079 33.874 168.162 34.2793C168.25 34.6797 168.379 35.019 168.55 35.2974C168.726 35.5757 168.941 35.7856 169.195 35.9272C169.454 36.0688 169.754 36.1396 170.096 36.1396C170.423 36.1396 170.713 36.0688 170.967 35.9272C171.221 35.7856 171.434 35.5757 171.604 35.2974C171.78 35.019 171.912 34.6797 172 34.2793C172.093 33.874 172.139 33.4102 172.139 32.8877ZM179.31 36.2422C179.539 36.2422 179.734 36.2007 179.896 36.1177C180.062 36.0298 180.186 35.9077 180.269 35.7515C180.357 35.5903 180.398 35.3975 180.394 35.1729H182.715C182.72 35.7686 182.574 36.291 182.276 36.7402C181.983 37.1846 181.583 37.5312 181.075 37.7803C180.572 38.0244 180.003 38.1465 179.368 38.1465C178.748 38.1465 178.206 38.0464 177.742 37.8462C177.278 37.6411 176.89 37.3579 176.578 36.9966C176.27 36.6304 176.038 36.2031 175.882 35.7148C175.73 35.2266 175.655 34.6968 175.655 34.1255V33.957C175.655 33.3857 175.73 32.856 175.882 32.3677C176.038 31.8745 176.27 31.4473 176.578 31.0859C176.89 30.7197 177.276 30.4365 177.735 30.2363C178.199 30.0312 178.738 29.9287 179.354 29.9287C180.013 29.9287 180.594 30.0532 181.097 30.3022C181.604 30.5513 182.002 30.9126 182.291 31.3862C182.579 31.8599 182.72 32.4336 182.715 33.1074H180.394C180.398 32.8682 180.362 32.6533 180.284 32.4629C180.206 32.2725 180.083 32.1211 179.917 32.0088C179.756 31.8916 179.549 31.833 179.295 31.833C179.041 31.833 178.836 31.8892 178.68 32.0015C178.523 32.1138 178.404 32.27 178.321 32.4702C178.243 32.6655 178.189 32.8901 178.16 33.144C178.135 33.3979 178.123 33.6689 178.123 33.957V34.1255C178.123 34.4185 178.135 34.6943 178.16 34.9531C178.189 35.207 178.245 35.4316 178.328 35.627C178.411 35.8174 178.531 35.9688 178.687 36.0811C178.843 36.1885 179.051 36.2422 179.31 36.2422ZM187.117 36.2422C187.347 36.2422 187.542 36.2007 187.703 36.1177C187.869 36.0298 187.994 35.9077 188.077 35.7515C188.165 35.5903 188.206 35.3975 188.201 35.1729H190.523C190.528 35.7686 190.381 36.291 190.083 36.7402C189.791 37.1846 189.39 37.5312 188.882 37.7803C188.379 38.0244 187.811 38.1465 187.176 38.1465C186.556 38.1465 186.014 38.0464 185.55 37.8462C185.086 37.6411 184.698 37.3579 184.385 36.9966C184.078 36.6304 183.846 36.2031 183.689 35.7148C183.538 35.2266 183.462 34.6968 183.462 34.1255V33.957C183.462 33.3857 183.538 32.856 183.689 32.3677C183.846 31.8745 184.078 31.4473 184.385 31.0859C184.698 30.7197 185.083 30.4365 185.542 30.2363C186.006 30.0312 186.546 29.9287 187.161 29.9287C187.82 29.9287 188.401 30.0532 188.904 30.3022C189.412 30.5513 189.81 30.9126 190.098 31.3862C190.386 31.8599 190.528 32.4336 190.523 33.1074H188.201C188.206 32.8682 188.169 32.6533 188.091 32.4629C188.013 32.2725 187.891 32.1211 187.725 32.0088C187.564 31.8916 187.356 31.833 187.103 31.833C186.849 31.833 186.644 31.8892 186.487 32.0015C186.331 32.1138 186.211 32.27 186.128 32.4702C186.05 32.6655 185.997 32.8901 185.967 33.144C185.943 33.3979 185.931 33.6689 185.931 33.957V34.1255C185.931 34.4185 185.943 34.6943 185.967 34.9531C185.997 35.207 186.053 35.4316 186.136 35.627C186.219 35.8174 186.338 35.9688 186.495 36.0811C186.651 36.1885 186.858 36.2422 187.117 36.2422ZM194.185 30.0752V38H191.709V30.0752H194.185ZM191.563 28.0317C191.563 27.6802 191.69 27.3921 191.944 27.1675C192.198 26.9429 192.527 26.8306 192.933 26.8306C193.338 26.8306 193.667 26.9429 193.921 27.1675C194.175 27.3921 194.302 27.6802 194.302 28.0317C194.302 28.3833 194.175 28.6714 193.921 28.896C193.667 29.1206 193.338 29.2329 192.933 29.2329C192.527 29.2329 192.198 29.1206 191.944 28.896C191.69 28.6714 191.563 28.3833 191.563 28.0317ZM200.264 36.1836V26.75H202.747V38H200.521L200.264 36.1836ZM195.401 34.1328V33.979C195.401 33.3784 195.467 32.8315 195.599 32.3384C195.73 31.8403 195.926 31.4131 196.185 31.0566C196.443 30.6953 196.766 30.417 197.151 30.2217C197.537 30.0264 197.981 29.9287 198.484 29.9287C198.934 29.9287 199.327 30.0337 199.664 30.2437C200 30.4487 200.289 30.7368 200.528 31.1079C200.767 31.479 200.962 31.9136 201.114 32.4116C201.265 32.9048 201.38 33.437 201.458 34.0083V34.1914C201.38 34.7285 201.265 35.2363 201.114 35.7148C200.962 36.1885 200.767 36.6084 200.528 36.9746C200.289 37.3408 199.998 37.6289 199.656 37.8389C199.319 38.0439 198.924 38.1465 198.47 38.1465C197.967 38.1465 197.522 38.0464 197.137 37.8462C196.756 37.646 196.436 37.3652 196.177 37.0039C195.923 36.6426 195.73 36.2178 195.599 35.7295C195.467 35.2412 195.401 34.709 195.401 34.1328ZM197.869 33.979V34.1328C197.869 34.4307 197.889 34.7065 197.928 34.9604C197.967 35.2144 198.033 35.439 198.125 35.6343C198.223 35.8247 198.35 35.9736 198.506 36.0811C198.667 36.1885 198.865 36.2422 199.1 36.2422C199.417 36.2422 199.678 36.1665 199.883 36.0151C200.093 35.8638 200.247 35.6489 200.345 35.3706C200.447 35.0923 200.491 34.7651 200.477 34.3892V33.8105C200.486 33.4883 200.464 33.2051 200.411 32.9609C200.357 32.7119 200.271 32.5044 200.154 32.3384C200.042 32.1724 199.898 32.0479 199.722 31.9648C199.551 31.877 199.349 31.833 199.114 31.833C198.885 31.833 198.689 31.8867 198.528 31.9941C198.372 32.1016 198.245 32.2529 198.147 32.4482C198.05 32.6387 197.979 32.8657 197.935 33.1294C197.891 33.3882 197.869 33.6714 197.869 33.979ZM207.984 38.1465C207.339 38.1465 206.763 38.0464 206.255 37.8462C205.748 37.6411 205.318 37.3604 204.966 37.0039C204.62 36.6475 204.354 36.2373 204.168 35.7734C203.987 35.3096 203.897 34.8188 203.897 34.3013V34.0229C203.897 33.4419 203.978 32.9048 204.139 32.4116C204.3 31.9136 204.539 31.479 204.856 31.1079C205.174 30.7368 205.572 30.4487 206.05 30.2437C206.529 30.0337 207.085 29.9287 207.72 29.9287C208.282 29.9287 208.785 30.019 209.229 30.1997C209.673 30.3804 210.049 30.6392 210.357 30.9761C210.669 31.313 210.906 31.7207 211.067 32.1992C211.233 32.6777 211.316 33.2148 211.316 33.8105V34.814H204.842V33.2686H208.907V33.0781C208.912 32.8145 208.865 32.5898 208.768 32.4043C208.675 32.2188 208.538 32.0771 208.357 31.9795C208.177 31.8818 207.957 31.833 207.698 31.833C207.43 31.833 207.208 31.8916 207.032 32.0088C206.861 32.126 206.727 32.2871 206.629 32.4922C206.536 32.6924 206.47 32.9243 206.431 33.188C206.392 33.4517 206.373 33.73 206.373 34.0229V34.3013C206.373 34.5942 206.412 34.8604 206.49 35.0996C206.573 35.3389 206.69 35.5439 206.841 35.7148C206.998 35.8809 207.183 36.0103 207.398 36.103C207.618 36.1958 207.867 36.2422 208.145 36.2422C208.482 36.2422 208.814 36.1787 209.141 36.0518C209.468 35.9248 209.749 35.7148 209.983 35.4219L211.104 36.7549C210.943 36.9844 210.713 37.2065 210.416 37.4214C210.123 37.6362 209.771 37.812 209.361 37.9487C208.951 38.0806 208.492 38.1465 207.984 38.1465ZM214.744 31.7671V38H212.276V30.0752H214.59L214.744 31.7671ZM214.451 33.7666L213.873 33.7812C213.873 33.1758 213.946 32.6362 214.092 32.1626C214.239 31.6841 214.446 31.2788 214.715 30.9468C214.983 30.6147 215.303 30.3633 215.674 30.1924C216.05 30.0166 216.468 29.9287 216.927 29.9287C217.293 29.9287 217.627 29.9824 217.93 30.0898C218.238 30.1973 218.501 30.3706 218.721 30.6099C218.946 30.8491 219.117 31.1665 219.234 31.562C219.356 31.9526 219.417 32.436 219.417 33.0122V38H216.934V33.0049C216.934 32.6875 216.89 32.4458 216.802 32.2798C216.714 32.1089 216.587 31.9917 216.421 31.9282C216.255 31.8647 216.053 31.833 215.813 31.833C215.56 31.833 215.345 31.8818 215.169 31.9795C214.993 32.0771 214.852 32.2139 214.744 32.3896C214.642 32.5605 214.566 32.7632 214.517 32.9976C214.473 33.2319 214.451 33.4883 214.451 33.7666ZM224.961 30.0752V31.7891H220.186V30.0752H224.961ZM221.189 28.105H223.658V35.4146C223.658 35.6245 223.682 35.7881 223.731 35.9053C223.78 36.0176 223.863 36.0981 223.98 36.147C224.102 36.1909 224.263 36.2129 224.463 36.2129C224.605 36.2129 224.722 36.2104 224.815 36.2056C224.908 36.1958 224.996 36.1836 225.079 36.1689V37.9341C224.869 38.0024 224.649 38.0537 224.419 38.0879C224.19 38.127 223.946 38.1465 223.687 38.1465C223.16 38.1465 222.708 38.0635 222.332 37.8975C221.961 37.7314 221.678 37.4702 221.482 37.1138C221.287 36.7573 221.189 36.2935 221.189 35.7222V28.105ZM229.781 38.1465C229.136 38.1465 228.56 38.0464 228.052 37.8462C227.544 37.6411 227.115 37.3604 226.763 37.0039C226.417 36.6475 226.15 36.2373 225.965 35.7734C225.784 35.3096 225.694 34.8188 225.694 34.3013V34.0229C225.694 33.4419 225.774 32.9048 225.936 32.4116C226.097 31.9136 226.336 31.479 226.653 31.1079C226.971 30.7368 227.369 30.4487 227.847 30.2437C228.326 30.0337 228.882 29.9287 229.517 29.9287C230.079 29.9287 230.582 30.019 231.026 30.1997C231.47 30.3804 231.846 30.6392 232.154 30.9761C232.466 31.313 232.703 31.7207 232.864 32.1992C233.03 32.6777 233.113 33.2148 233.113 33.8105V34.814H226.639V33.2686H230.704V33.0781C230.708 32.8145 230.662 32.5898 230.564 32.4043C230.472 32.2188 230.335 32.0771 230.154 31.9795C229.974 31.8818 229.754 31.833 229.495 31.833C229.227 31.833 229.004 31.8916 228.829 32.0088C228.658 32.126 228.523 32.2871 228.426 32.4922C228.333 32.6924 228.267 32.9243 228.228 33.188C228.189 33.4517 228.169 33.73 228.169 34.0229V34.3013C228.169 34.5942 228.208 34.8604 228.287 35.0996C228.37 35.3389 228.487 35.5439 228.638 35.7148C228.794 35.8809 228.98 36.0103 229.195 36.103C229.415 36.1958 229.664 36.2422 229.942 36.2422C230.279 36.2422 230.611 36.1787 230.938 36.0518C231.265 35.9248 231.546 35.7148 231.78 35.4219L232.901 36.7549C232.74 36.9844 232.51 37.2065 232.212 37.4214C231.919 37.6362 231.568 37.812 231.158 37.9487C230.748 38.0806 230.289 38.1465 229.781 38.1465Z" fill="white"/>
</svg>
