<svg width="340" height="43" viewBox="0 0 340 43" fill="none" xmlns="http://www.w3.org/2000/svg">
<path d="M15.317 25.5822C15.317 25.0311 15.2306 24.5448 15.0577 24.1234C14.8956 23.6912 14.6038 23.3022 14.1824 22.9564C13.7718 22.6106 13.1991 22.281 12.4643 21.9677C11.7403 21.6543 10.8219 21.3355 9.70888 21.0114C8.54187 20.6656 7.48832 20.282 6.54823 19.8606C5.60814 19.4283 4.80311 18.9367 4.13316 18.3856C3.46321 17.8345 2.94994 17.2024 2.59336 16.4892C2.23677 15.776 2.05848 14.9602 2.05848 14.0417C2.05848 13.1232 2.24758 12.275 2.62577 11.497C3.00397 10.719 3.54426 10.0436 4.24662 9.47092C4.9598 8.88741 5.80804 8.43357 6.79136 8.1094C7.77467 7.78523 8.87145 7.62315 10.0817 7.62315C11.8538 7.62315 13.3558 7.96353 14.5876 8.64428C15.8303 9.31423 16.7758 10.1949 17.4241 11.2863C18.0725 12.3668 18.3966 13.523 18.3966 14.7549H15.2846C15.2846 13.8688 15.0955 13.0854 14.7173 12.4047C14.3391 11.7131 13.7664 11.1728 12.9992 10.7838C12.232 10.384 11.2595 10.1841 10.0817 10.1841C8.9687 10.1841 8.05022 10.3516 7.32624 10.6866C6.60226 11.0215 6.06197 11.4754 5.70539 12.0481C5.35961 12.6208 5.18672 13.2745 5.18672 14.0093C5.18672 14.5064 5.28937 14.9602 5.49468 15.3708C5.71079 15.7706 6.04036 16.1434 6.48339 16.4892C6.93723 16.835 7.50993 17.1537 8.20149 17.4455C8.90386 17.7372 9.7413 18.0182 10.7138 18.2883C12.0537 18.6665 13.2099 19.088 14.1824 19.5526C15.1549 20.0172 15.9546 20.5413 16.5813 21.1248C17.2188 21.6975 17.6889 22.3513 17.9914 23.086C18.3048 23.81 18.4615 24.6313 18.4615 25.5497C18.4615 26.5114 18.267 27.3813 17.878 28.1593C17.489 28.9373 16.9325 29.6019 16.2085 30.1529C15.4845 30.704 14.6147 31.1309 13.5989 31.4334C12.594 31.7252 11.4702 31.871 10.2276 31.871C9.13618 31.871 8.06102 31.7198 7.00207 31.4172C5.95392 31.1146 4.99762 30.6608 4.13316 30.0557C3.27952 29.4506 2.59336 28.705 2.07469 27.8189C1.56682 26.9221 1.31289 25.8847 1.31289 24.7069H4.42492C4.42492 25.5173 4.5816 26.2143 4.89496 26.7978C5.20833 27.3705 5.63515 27.8459 6.17543 28.2241C6.72652 28.6023 7.34785 28.8833 8.03941 29.067C8.74178 29.2399 9.47116 29.3263 10.2276 29.3263C11.3189 29.3263 12.2428 29.175 12.9992 28.8725C13.7556 28.5699 14.3283 28.1377 14.7173 27.5758C15.1171 27.0139 15.317 26.3494 15.317 25.5822ZM40.6185 19.0015V20.4927C40.6185 22.2648 40.397 23.8532 39.9539 25.258C39.5109 26.6627 38.8734 27.8567 38.0413 28.8401C37.2093 29.8234 36.2098 30.5744 35.0427 31.093C33.8865 31.6117 32.5899 31.871 31.1527 31.871C29.7588 31.871 28.4783 31.6117 27.3113 31.093C26.1551 30.5744 25.1502 29.8234 24.2965 28.8401C23.4537 27.8567 22.7999 26.6627 22.3353 25.258C21.8707 23.8532 21.6383 22.2648 21.6383 20.4927V19.0015C21.6383 17.2294 21.8652 15.6463 22.3191 14.2524C22.7837 12.8477 23.4375 11.6537 24.2803 10.6703C25.1232 9.67622 26.1227 8.91983 27.2789 8.40116C28.4459 7.88248 29.7264 7.62315 31.1203 7.62315C32.5574 7.62315 33.8541 7.88248 35.0103 8.40116C36.1773 8.91983 37.1769 9.67622 38.0089 10.6703C38.8517 11.6537 39.4947 12.8477 39.9377 14.2524C40.3915 15.6463 40.6185 17.2294 40.6185 19.0015ZM37.5226 20.4927V18.9691C37.5226 17.5644 37.3768 16.3217 37.085 15.2411C36.8041 14.1606 36.3881 13.2529 35.837 12.5181C35.2859 11.7833 34.6105 11.2268 33.8109 10.8486C33.0221 10.4704 32.1252 10.2813 31.1203 10.2813C30.1478 10.2813 29.2671 10.4704 28.4783 10.8486C27.7003 11.2268 27.0304 11.7833 26.4685 12.5181C25.9174 13.2529 25.4905 14.1606 25.188 15.2411C24.8854 16.3217 24.7342 17.5644 24.7342 18.9691V20.4927C24.7342 21.9082 24.8854 23.1617 25.188 24.2531C25.4905 25.3336 25.9228 26.2467 26.4847 26.9923C27.0574 27.7271 27.7327 28.2836 28.5107 28.6618C29.2995 29.04 30.1802 29.2291 31.1527 29.2291C32.1684 29.2291 33.0707 29.04 33.8595 28.6618C34.6483 28.2836 35.3129 27.7271 35.8532 26.9923C36.4043 26.2467 36.8203 25.3336 37.1012 24.2531C37.3822 23.1617 37.5226 21.9082 37.5226 20.4927ZM51.0891 20.282V22.7457H43.1794V20.282H51.0891ZM72.6464 19.0015V20.4927C72.6464 22.2648 72.4249 23.8532 71.9819 25.258C71.5389 26.6627 70.9013 27.8567 70.0693 28.8401C69.2373 29.8234 68.2377 30.5744 67.0707 31.093C65.9145 31.6117 64.6178 31.871 63.1807 31.871C61.7867 31.871 60.5063 31.6117 59.3393 31.093C58.1831 30.5744 57.1781 29.8234 56.3245 28.8401C55.4816 27.8567 54.8279 26.6627 54.3633 25.258C53.8986 23.8532 53.6663 22.2648 53.6663 20.4927V19.0015C53.6663 17.2294 53.8932 15.6463 54.3471 14.2524C54.8117 12.8477 55.4654 11.6537 56.3083 10.6703C57.1511 9.67622 58.1506 8.91983 59.3069 8.40116C60.4739 7.88248 61.7543 7.62315 63.1483 7.62315C64.5854 7.62315 65.8821 7.88248 67.0383 8.40116C68.2053 8.91983 69.2048 9.67622 70.0369 10.6703C70.8797 11.6537 71.5226 12.8477 71.9657 14.2524C72.4195 15.6463 72.6464 17.2294 72.6464 19.0015ZM69.5506 20.4927V18.9691C69.5506 17.5644 69.4047 16.3217 69.113 15.2411C68.832 14.1606 68.416 13.2529 67.8649 12.5181C67.3138 11.7833 66.6385 11.2268 65.8389 10.8486C65.0501 10.4704 64.1532 10.2813 63.1483 10.2813C62.1758 10.2813 61.2951 10.4704 60.5063 10.8486C59.7283 11.2268 59.0583 11.7833 58.4964 12.5181C57.9453 13.2529 57.5185 14.1606 57.216 15.2411C56.9134 16.3217 56.7621 17.5644 56.7621 18.9691V20.4927C56.7621 21.9082 56.9134 23.1617 57.216 24.2531C57.5185 25.3336 57.9507 26.2467 58.5126 26.9923C59.0853 27.7271 59.7607 28.2836 60.5387 28.6618C61.3275 29.04 62.2082 29.2291 63.1807 29.2291C64.1964 29.2291 65.0987 29.04 65.8875 28.6618C66.6763 28.2836 67.3409 27.7271 67.8811 26.9923C68.4322 26.2467 68.8482 25.3336 69.1292 24.2531C69.4101 23.1617 69.5506 21.9082 69.5506 20.4927ZM89.9085 25.5822C89.9085 25.0311 89.822 24.5448 89.6491 24.1234C89.4871 23.6912 89.1953 23.3022 88.7739 22.9564C88.3633 22.6106 87.7906 22.281 87.0558 21.9677C86.3318 21.6543 85.4133 21.3355 84.3003 21.0114C83.1333 20.6656 82.0798 20.282 81.1397 19.8606C80.1996 19.4283 79.3946 18.9367 78.7246 18.3856C78.0547 17.8345 77.5414 17.2024 77.1848 16.4892C76.8282 15.776 76.6499 14.9602 76.6499 14.0417C76.6499 13.1232 76.839 12.275 77.2172 11.497C77.5954 10.719 78.1357 10.0436 78.8381 9.47092C79.5513 8.88741 80.3995 8.43357 81.3828 8.1094C82.3661 7.78523 83.4629 7.62315 84.6731 7.62315C86.4453 7.62315 87.9472 7.96353 89.1791 8.64428C90.4217 9.31423 91.3672 10.1949 92.0156 11.2863C92.6639 12.3668 92.9881 13.523 92.9881 14.7549H89.8761C89.8761 13.8688 89.687 13.0854 89.3088 12.4047C88.9306 11.7131 88.3579 11.1728 87.5907 10.7838C86.8235 10.384 85.8509 10.1841 84.6731 10.1841C83.5601 10.1841 82.6417 10.3516 81.9177 10.6866C81.1937 11.0215 80.6534 11.4754 80.2968 12.0481C79.9511 12.6208 79.7782 13.2745 79.7782 14.0093C79.7782 14.5064 79.8808 14.9602 80.0861 15.3708C80.3022 15.7706 80.6318 16.1434 81.0748 16.4892C81.5287 16.835 82.1014 17.1537 82.7929 17.4455C83.4953 17.7372 84.3328 18.0182 85.3053 18.2883C86.6452 18.6665 87.8014 19.088 88.7739 19.5526C89.7464 20.0172 90.546 20.5413 91.1727 21.1248C91.8103 21.6975 92.2803 22.3513 92.5829 23.086C92.8962 23.81 93.0529 24.6313 93.0529 25.5497C93.0529 26.5114 92.8584 27.3813 92.4694 28.1593C92.0804 28.9373 91.5239 29.6019 90.7999 30.1529C90.076 30.704 89.2061 31.1309 88.1904 31.4334C87.1854 31.7252 86.0617 31.871 84.819 31.871C83.7276 31.871 82.6525 31.7198 81.5935 31.4172C80.5454 31.1146 79.5891 30.6608 78.7246 30.0557C77.871 29.4506 77.1848 28.705 76.6661 27.8189C76.1583 26.9221 75.9043 25.8847 75.9043 24.7069H79.0164C79.0164 25.5173 79.1731 26.2143 79.4864 26.7978C79.7998 27.3705 80.2266 27.8459 80.7669 28.2241C81.318 28.6023 81.9393 28.8833 82.6309 29.067C83.3332 29.2399 84.0626 29.3263 84.819 29.3263C85.9104 29.3263 86.8343 29.175 87.5907 28.8725C88.3471 28.5699 88.9198 28.1377 89.3088 27.5758C89.7086 27.0139 89.9085 26.3494 89.9085 25.5822ZM114.481 19.7957V28.4348C114.189 28.8671 113.724 29.3533 113.087 29.8936C112.449 30.4231 111.568 30.8877 110.445 31.2875C109.332 31.6765 107.894 31.871 106.133 31.871C104.696 31.871 103.372 31.6225 102.162 31.1255C100.963 30.6176 99.9199 29.8828 99.0339 28.9211C98.1586 27.9486 97.4778 26.7708 96.9916 25.3877C96.5161 23.9937 96.2784 22.4161 96.2784 20.6548V18.8232C96.2784 17.0619 96.4837 15.4897 96.8943 14.1065C97.3158 12.7234 97.9317 11.551 98.7421 10.5893C99.5525 9.61679 100.547 8.88201 101.724 8.38495C102.902 7.87708 104.253 7.62315 105.777 7.62315C107.581 7.62315 109.089 7.93651 110.299 8.56324C111.52 9.17916 112.471 10.0328 113.151 11.1242C113.843 12.2156 114.286 13.4582 114.481 14.8521H111.352C111.212 13.9985 110.931 13.2205 110.509 12.5181C110.099 11.8157 109.51 11.2538 108.743 10.8324C107.976 10.4002 106.987 10.1841 105.777 10.1841C104.685 10.1841 103.74 10.384 102.94 10.7838C102.14 11.1836 101.481 11.7563 100.963 12.5019C100.444 13.2475 100.055 14.1498 99.7957 15.2087C99.5471 16.2677 99.4229 17.4617 99.4229 18.7908V20.6548C99.4229 22.0163 99.5795 23.2319 99.8929 24.3017C100.217 25.3714 100.676 26.2845 101.271 27.0409C101.865 27.7865 102.573 28.3538 103.394 28.7428C104.226 29.1318 105.144 29.3263 106.149 29.3263C107.262 29.3263 108.165 29.2345 108.856 29.0508C109.548 28.8563 110.088 28.6293 110.477 28.37C110.866 28.0999 111.163 27.8459 111.369 27.6082V22.3242H105.906V19.7957H114.481Z" fill="white"/>
<line x1="2.75967" y1="38.2848" x2="114.087" y2="38.2848" stroke="white" stroke-width="2.2" stroke-linecap="square"/>
<path d="M136.448 14.3311V15.0049C136.448 15.8057 136.348 16.5234 136.148 17.1582C135.948 17.793 135.66 18.3325 135.284 18.7769C134.908 19.2212 134.456 19.5605 133.929 19.7949C133.406 20.0293 132.82 20.1465 132.171 20.1465C131.541 20.1465 130.962 20.0293 130.435 19.7949C129.913 19.5605 129.458 19.2212 129.073 18.7769C128.692 18.3325 128.396 17.793 128.187 17.1582C127.977 16.5234 127.872 15.8057 127.872 15.0049V14.3311C127.872 13.5303 127.974 12.8149 128.179 12.1851C128.389 11.5503 128.685 11.0107 129.065 10.5664C129.446 10.1172 129.898 9.77539 130.42 9.54102C130.948 9.30664 131.526 9.18945 132.156 9.18945C132.806 9.18945 133.392 9.30664 133.914 9.54102C134.441 9.77539 134.893 10.1172 135.269 10.5664C135.65 11.0107 135.94 11.5503 136.141 12.1851C136.346 12.8149 136.448 13.5303 136.448 14.3311ZM135.049 15.0049V14.3164C135.049 13.6816 134.983 13.1201 134.852 12.6318C134.725 12.1436 134.537 11.7334 134.288 11.4014C134.039 11.0693 133.733 10.8179 133.372 10.647C133.016 10.4761 132.61 10.3906 132.156 10.3906C131.717 10.3906 131.319 10.4761 130.962 10.647C130.611 10.8179 130.308 11.0693 130.054 11.4014C129.805 11.7334 129.612 12.1436 129.476 12.6318C129.339 13.1201 129.271 13.6816 129.271 14.3164V15.0049C129.271 15.6445 129.339 16.2109 129.476 16.7041C129.612 17.1924 129.808 17.605 130.062 17.9419C130.32 18.2739 130.625 18.5254 130.977 18.6963C131.333 18.8672 131.731 18.9526 132.171 18.9526C132.63 18.9526 133.038 18.8672 133.394 18.6963C133.75 18.5254 134.051 18.2739 134.295 17.9419C134.544 17.605 134.732 17.1924 134.859 16.7041C134.986 16.2109 135.049 15.6445 135.049 15.0049ZM140.169 20H138.814V11.3867C138.814 10.7861 138.931 10.2783 139.166 9.86328C139.4 9.44824 139.734 9.1333 140.169 8.91846C140.604 8.70361 141.119 8.59619 141.714 8.59619C142.066 8.59619 142.41 8.64014 142.747 8.72803C143.084 8.81104 143.431 8.91602 143.787 9.04297L143.56 10.1855C143.335 10.0977 143.074 10.0146 142.776 9.93652C142.483 9.85352 142.161 9.81201 141.81 9.81201C141.229 9.81201 140.809 9.94385 140.55 10.2075C140.296 10.4663 140.169 10.8594 140.169 11.3867V20ZM141.788 12.0752V13.1152H137.562V12.0752H141.788ZM144.454 12.0752V20H143.099V12.0752H144.454ZM149.852 19.0332C150.174 19.0332 150.472 18.9673 150.745 18.8354C151.019 18.7036 151.243 18.5229 151.419 18.2935C151.595 18.0591 151.695 17.793 151.719 17.4951H153.008C152.984 17.9639 152.825 18.4009 152.532 18.8062C152.244 19.2065 151.866 19.5312 151.397 19.7803C150.928 20.0244 150.413 20.1465 149.852 20.1465C149.256 20.1465 148.736 20.0415 148.292 19.8315C147.852 19.6216 147.486 19.3335 147.193 18.9673C146.905 18.6011 146.688 18.1812 146.541 17.7075C146.399 17.229 146.329 16.7236 146.329 16.1914V15.8838C146.329 15.3516 146.399 14.8486 146.541 14.375C146.688 13.8965 146.905 13.4741 147.193 13.1079C147.486 12.7417 147.852 12.4536 148.292 12.2437C148.736 12.0337 149.256 11.9287 149.852 11.9287C150.472 11.9287 151.014 12.0557 151.478 12.3096C151.941 12.5586 152.305 12.9004 152.569 13.335C152.837 13.7646 152.984 14.2529 153.008 14.7998H151.719C151.695 14.4727 151.602 14.1772 151.441 13.9136C151.285 13.6499 151.07 13.4399 150.796 13.2837C150.528 13.1226 150.213 13.042 149.852 13.042C149.437 13.042 149.087 13.125 148.804 13.291C148.526 13.4521 148.304 13.6719 148.138 13.9502C147.977 14.2236 147.859 14.5288 147.786 14.8657C147.718 15.1978 147.684 15.5371 147.684 15.8838V16.1914C147.684 16.5381 147.718 16.8799 147.786 17.2168C147.854 17.5537 147.969 17.8589 148.13 18.1323C148.296 18.4058 148.519 18.6255 148.797 18.7915C149.08 18.9526 149.432 19.0332 149.852 19.0332ZM156.004 12.0752V20H154.642V12.0752H156.004ZM154.539 9.97314C154.539 9.75342 154.605 9.56787 154.737 9.4165C154.874 9.26514 155.074 9.18945 155.337 9.18945C155.596 9.18945 155.794 9.26514 155.931 9.4165C156.072 9.56787 156.143 9.75342 156.143 9.97314C156.143 10.1831 156.072 10.3638 155.931 10.5151C155.794 10.6616 155.596 10.7349 155.337 10.7349C155.074 10.7349 154.874 10.6616 154.737 10.5151C154.605 10.3638 154.539 10.1831 154.539 9.97314ZM159.534 13.7671V20H158.179V12.0752H159.461L159.534 13.7671ZM159.212 15.7373L158.648 15.7153C158.653 15.1733 158.733 14.6729 158.89 14.2139C159.046 13.75 159.266 13.3472 159.549 13.0054C159.832 12.6636 160.169 12.3999 160.56 12.2144C160.955 12.0239 161.392 11.9287 161.871 11.9287C162.261 11.9287 162.613 11.9824 162.925 12.0898C163.238 12.1924 163.504 12.3584 163.724 12.5879C163.948 12.8174 164.119 13.1152 164.236 13.4814C164.354 13.8428 164.412 14.2847 164.412 14.8071V20H163.05V14.7925C163.05 14.3774 162.989 14.0454 162.867 13.7964C162.745 13.5425 162.566 13.3594 162.332 13.2471C162.098 13.1299 161.81 13.0713 161.468 13.0713C161.131 13.0713 160.823 13.1421 160.545 13.2837C160.271 13.4253 160.035 13.6206 159.834 13.8696C159.639 14.1187 159.485 14.4043 159.373 14.7266C159.266 15.0439 159.212 15.3809 159.212 15.7373ZM171.143 18.645V14.5654C171.143 14.2529 171.08 13.9819 170.953 13.7524C170.831 13.5181 170.645 13.3374 170.396 13.2104C170.147 13.0835 169.839 13.02 169.473 13.02C169.131 13.02 168.831 13.0786 168.572 13.1958C168.318 13.313 168.118 13.4668 167.972 13.6572C167.83 13.8477 167.759 14.0527 167.759 14.2725H166.404C166.404 13.9893 166.478 13.7085 166.624 13.4302C166.771 13.1519 166.98 12.9004 167.254 12.6758C167.532 12.4463 167.864 12.2656 168.25 12.1338C168.641 11.9971 169.075 11.9287 169.554 11.9287C170.13 11.9287 170.638 12.0264 171.077 12.2217C171.521 12.417 171.868 12.7124 172.117 13.1079C172.371 13.4985 172.498 13.9893 172.498 14.5801V18.2715C172.498 18.5352 172.52 18.8159 172.564 19.1138C172.613 19.4116 172.684 19.668 172.776 19.8828V20H171.363C171.294 19.8438 171.241 19.6362 171.202 19.3774C171.163 19.1138 171.143 18.8696 171.143 18.645ZM171.377 15.1953L171.392 16.1475H170.022C169.637 16.1475 169.292 16.1792 168.99 16.2427C168.687 16.3013 168.433 16.3916 168.228 16.5137C168.023 16.6357 167.867 16.7896 167.759 16.9751C167.652 17.1558 167.598 17.3682 167.598 17.6123C167.598 17.8613 167.654 18.0884 167.767 18.2935C167.879 18.4985 168.047 18.6621 168.272 18.7842C168.501 18.9014 168.782 18.96 169.114 18.96C169.529 18.96 169.896 18.8721 170.213 18.6963C170.53 18.5205 170.782 18.3057 170.967 18.0518C171.158 17.7979 171.26 17.5513 171.275 17.312L171.854 17.9639C171.819 18.1689 171.727 18.396 171.575 18.645C171.424 18.894 171.221 19.1333 170.967 19.3628C170.718 19.5874 170.42 19.7754 170.074 19.9268C169.732 20.0732 169.346 20.1465 168.917 20.1465C168.379 20.1465 167.908 20.0415 167.503 19.8315C167.103 19.6216 166.79 19.3408 166.565 18.9893C166.346 18.6328 166.236 18.2349 166.236 17.7954C166.236 17.3706 166.319 16.9971 166.485 16.6748C166.651 16.3477 166.89 16.0767 167.203 15.8618C167.515 15.6421 167.891 15.4761 168.331 15.3638C168.77 15.2515 169.261 15.1953 169.803 15.1953H171.377ZM183.345 18.4619V8.75H184.708V20H183.462L183.345 18.4619ZM178.013 16.1255V15.9717C178.013 15.3662 178.086 14.8169 178.233 14.3237C178.384 13.8257 178.597 13.3984 178.87 13.042C179.148 12.6855 179.478 12.4121 179.859 12.2217C180.245 12.0264 180.674 11.9287 181.148 11.9287C181.646 11.9287 182.081 12.0166 182.452 12.1924C182.828 12.3633 183.145 12.6147 183.404 12.9468C183.667 13.2739 183.875 13.6694 184.026 14.1333C184.178 14.5972 184.283 15.1221 184.341 15.708V16.3818C184.288 16.9629 184.183 17.4854 184.026 17.9492C183.875 18.4131 183.667 18.8086 183.404 19.1357C183.145 19.4629 182.828 19.7144 182.452 19.8901C182.076 20.061 181.636 20.1465 181.133 20.1465C180.669 20.1465 180.245 20.0464 179.859 19.8462C179.478 19.646 179.148 19.3652 178.87 19.0039C178.597 18.6426 178.384 18.2178 178.233 17.7295C178.086 17.2363 178.013 16.7017 178.013 16.1255ZM179.375 15.9717V16.1255C179.375 16.521 179.415 16.8921 179.493 17.2388C179.576 17.5854 179.703 17.8906 179.874 18.1543C180.044 18.418 180.262 18.6255 180.525 18.7769C180.789 18.9233 181.104 18.9966 181.47 18.9966C181.919 18.9966 182.288 18.9014 182.576 18.7109C182.869 18.5205 183.104 18.269 183.279 17.9565C183.455 17.644 183.592 17.3047 183.689 16.9385V15.1733C183.631 14.9048 183.545 14.646 183.433 14.397C183.326 14.1431 183.184 13.9185 183.008 13.7231C182.837 13.5229 182.625 13.3643 182.371 13.2471C182.122 13.1299 181.827 13.0713 181.485 13.0713C181.114 13.0713 180.794 13.1494 180.525 13.3057C180.262 13.457 180.044 13.667 179.874 13.9355C179.703 14.1992 179.576 14.5068 179.493 14.8584C179.415 15.2051 179.375 15.5762 179.375 15.9717ZM190.105 20.1465C189.554 20.1465 189.053 20.0537 188.604 19.8682C188.16 19.6777 187.776 19.4116 187.454 19.0698C187.137 18.728 186.893 18.3228 186.722 17.854C186.551 17.3853 186.465 16.8726 186.465 16.3159V16.0083C186.465 15.3638 186.561 14.79 186.751 14.2871C186.941 13.7793 187.2 13.3496 187.527 12.998C187.854 12.6465 188.226 12.3804 188.641 12.1997C189.056 12.019 189.485 11.9287 189.93 11.9287C190.496 11.9287 190.984 12.0264 191.395 12.2217C191.81 12.417 192.149 12.6904 192.413 13.042C192.676 13.3887 192.872 13.7988 192.999 14.2725C193.125 14.7412 193.189 15.2539 193.189 15.8105V16.4185H187.271V15.3125H191.834V15.21C191.814 14.8584 191.741 14.5166 191.614 14.1846C191.492 13.8525 191.297 13.5791 191.028 13.3643C190.76 13.1494 190.394 13.042 189.93 13.042C189.622 13.042 189.339 13.1079 189.08 13.2397C188.821 13.3667 188.599 13.5571 188.414 13.811C188.228 14.0649 188.084 14.375 187.981 14.7412C187.879 15.1074 187.828 15.5298 187.828 16.0083V16.3159C187.828 16.6919 187.879 17.0459 187.981 17.3779C188.089 17.7051 188.243 17.9932 188.443 18.2422C188.648 18.4912 188.895 18.6865 189.183 18.8281C189.476 18.9697 189.808 19.0405 190.179 19.0405C190.657 19.0405 191.062 18.9429 191.395 18.7476C191.727 18.5522 192.017 18.291 192.266 17.9639L193.086 18.6157C192.916 18.8745 192.698 19.1211 192.435 19.3555C192.171 19.5898 191.846 19.7803 191.46 19.9268C191.08 20.0732 190.628 20.1465 190.105 20.1465ZM204.38 17.3047C204.38 17.0557 204.341 16.8359 204.263 16.6455C204.19 16.4502 204.058 16.2744 203.868 16.1182C203.682 15.9619 203.423 15.813 203.091 15.6714C202.764 15.5298 202.349 15.3857 201.846 15.2393C201.319 15.083 200.843 14.9097 200.418 14.7192C199.993 14.5239 199.629 14.3018 199.327 14.0527C199.024 13.8037 198.792 13.5181 198.631 13.1958C198.47 12.8735 198.389 12.5049 198.389 12.0898C198.389 11.6748 198.475 11.2915 198.646 10.9399C198.816 10.5884 199.061 10.2832 199.378 10.0244C199.7 9.76074 200.083 9.55566 200.528 9.40918C200.972 9.2627 201.468 9.18945 202.015 9.18945C202.815 9.18945 203.494 9.34326 204.051 9.65088C204.612 9.95361 205.04 10.3516 205.333 10.8447C205.625 11.333 205.772 11.8555 205.772 12.4121H204.366C204.366 12.0117 204.28 11.6577 204.109 11.3501C203.938 11.0376 203.68 10.7935 203.333 10.6177C202.986 10.437 202.547 10.3467 202.015 10.3467C201.512 10.3467 201.097 10.4224 200.77 10.5737C200.442 10.7251 200.198 10.9302 200.037 11.189C199.881 11.4478 199.803 11.7432 199.803 12.0752C199.803 12.2998 199.849 12.5049 199.942 12.6904C200.04 12.8711 200.188 13.0396 200.389 13.1958C200.594 13.3521 200.853 13.4961 201.165 13.6279C201.482 13.7598 201.861 13.8867 202.3 14.0088C202.906 14.1797 203.428 14.3701 203.868 14.5801C204.307 14.79 204.668 15.0269 204.952 15.2905C205.24 15.5493 205.452 15.8447 205.589 16.1768C205.73 16.5039 205.801 16.875 205.801 17.29C205.801 17.7246 205.713 18.1177 205.538 18.4692C205.362 18.8208 205.11 19.1211 204.783 19.3701C204.456 19.6191 204.063 19.812 203.604 19.9487C203.15 20.0806 202.642 20.1465 202.081 20.1465C201.587 20.1465 201.102 20.0781 200.623 19.9414C200.149 19.8047 199.717 19.5996 199.327 19.3262C198.941 19.0527 198.631 18.7158 198.396 18.3154C198.167 17.9102 198.052 17.4414 198.052 16.9092H199.458C199.458 17.2754 199.529 17.5903 199.671 17.854C199.812 18.1128 200.005 18.3276 200.25 18.4985C200.499 18.6694 200.779 18.7964 201.092 18.8794C201.409 18.9575 201.739 18.9966 202.081 18.9966C202.574 18.9966 202.991 18.9282 203.333 18.7915C203.675 18.6548 203.934 18.4595 204.109 18.2056C204.29 17.9517 204.38 17.6514 204.38 17.3047ZM210.687 20.1465C210.135 20.1465 209.634 20.0537 209.185 19.8682C208.741 19.6777 208.357 19.4116 208.035 19.0698C207.718 18.728 207.474 18.3228 207.303 17.854C207.132 17.3853 207.046 16.8726 207.046 16.3159V16.0083C207.046 15.3638 207.142 14.79 207.332 14.2871C207.522 13.7793 207.781 13.3496 208.108 12.998C208.436 12.6465 208.807 12.3804 209.222 12.1997C209.637 12.019 210.066 11.9287 210.511 11.9287C211.077 11.9287 211.565 12.0264 211.976 12.2217C212.391 12.417 212.73 12.6904 212.994 13.042C213.257 13.3887 213.453 13.7988 213.58 14.2725C213.707 14.7412 213.77 15.2539 213.77 15.8105V16.4185H207.852V15.3125H212.415V15.21C212.396 14.8584 212.322 14.5166 212.195 14.1846C212.073 13.8525 211.878 13.5791 211.609 13.3643C211.341 13.1494 210.975 13.042 210.511 13.042C210.203 13.042 209.92 13.1079 209.661 13.2397C209.402 13.3667 209.18 13.5571 208.995 13.811C208.809 14.0649 208.665 14.375 208.562 14.7412C208.46 15.1074 208.409 15.5298 208.409 16.0083V16.3159C208.409 16.6919 208.46 17.0459 208.562 17.3779C208.67 17.7051 208.824 17.9932 209.024 18.2422C209.229 18.4912 209.476 18.6865 209.764 18.8281C210.057 18.9697 210.389 19.0405 210.76 19.0405C211.238 19.0405 211.644 18.9429 211.976 18.7476C212.308 18.5522 212.598 18.291 212.847 17.9639L213.667 18.6157C213.497 18.8745 213.279 19.1211 213.016 19.3555C212.752 19.5898 212.427 19.7803 212.042 19.9268C211.661 20.0732 211.209 20.1465 210.687 20.1465ZM216.707 13.3203V20H215.352V12.0752H216.67L216.707 13.3203ZM219.183 12.0312L219.175 13.291C219.063 13.2666 218.956 13.252 218.853 13.2471C218.755 13.2373 218.643 13.2324 218.516 13.2324C218.204 13.2324 217.928 13.2812 217.688 13.3789C217.449 13.4766 217.247 13.6133 217.081 13.7891C216.915 13.9648 216.783 14.1748 216.685 14.4189C216.592 14.6582 216.531 14.9219 216.502 15.21L216.121 15.4297C216.121 14.9512 216.167 14.502 216.26 14.082C216.358 13.6621 216.507 13.291 216.707 12.9688C216.907 12.6416 217.161 12.3877 217.469 12.207C217.781 12.0215 218.152 11.9287 218.582 11.9287C218.68 11.9287 218.792 11.9409 218.919 11.9653C219.046 11.9849 219.134 12.0068 219.183 12.0312ZM222.977 18.7769L225.145 12.0752H226.529L223.68 20H222.771L222.977 18.7769ZM221.167 12.0752L223.401 18.8135L223.555 20H222.647L219.776 12.0752H221.167ZM229.305 12.0752V20H227.942V12.0752H229.305ZM227.84 9.97314C227.84 9.75342 227.906 9.56787 228.038 9.4165C228.174 9.26514 228.375 9.18945 228.638 9.18945C228.897 9.18945 229.095 9.26514 229.231 9.4165C229.373 9.56787 229.444 9.75342 229.444 9.97314C229.444 10.1831 229.373 10.3638 229.231 10.5151C229.095 10.6616 228.897 10.7349 228.638 10.7349C228.375 10.7349 228.174 10.6616 228.038 10.5151C227.906 10.3638 227.84 10.1831 227.84 9.97314ZM234.651 19.0332C234.974 19.0332 235.271 18.9673 235.545 18.8354C235.818 18.7036 236.043 18.5229 236.219 18.2935C236.395 18.0591 236.495 17.793 236.519 17.4951H237.808C237.784 17.9639 237.625 18.4009 237.332 18.8062C237.044 19.2065 236.666 19.5312 236.197 19.7803C235.728 20.0244 235.213 20.1465 234.651 20.1465C234.056 20.1465 233.536 20.0415 233.091 19.8315C232.652 19.6216 232.286 19.3335 231.993 18.9673C231.705 18.6011 231.487 18.1812 231.341 17.7075C231.199 17.229 231.128 16.7236 231.128 16.1914V15.8838C231.128 15.3516 231.199 14.8486 231.341 14.375C231.487 13.8965 231.705 13.4741 231.993 13.1079C232.286 12.7417 232.652 12.4536 233.091 12.2437C233.536 12.0337 234.056 11.9287 234.651 11.9287C235.271 11.9287 235.813 12.0557 236.277 12.3096C236.741 12.5586 237.105 12.9004 237.369 13.335C237.637 13.7646 237.784 14.2529 237.808 14.7998H236.519C236.495 14.4727 236.402 14.1772 236.241 13.9136C236.084 13.6499 235.87 13.4399 235.596 13.2837C235.328 13.1226 235.013 13.042 234.651 13.042C234.236 13.042 233.887 13.125 233.604 13.291C233.326 13.4521 233.104 13.6719 232.938 13.9502C232.776 14.2236 232.659 14.5288 232.586 14.8657C232.518 15.1978 232.483 15.5371 232.483 15.8838V16.1914C232.483 16.5381 232.518 16.8799 232.586 17.2168C232.654 17.5537 232.769 17.8589 232.93 18.1323C233.096 18.4058 233.318 18.6255 233.597 18.7915C233.88 18.9526 234.231 19.0332 234.651 19.0332ZM240.804 12.0752V20H239.441V12.0752H240.804ZM239.339 9.97314C239.339 9.75342 239.405 9.56787 239.537 9.4165C239.673 9.26514 239.874 9.18945 240.137 9.18945C240.396 9.18945 240.594 9.26514 240.73 9.4165C240.872 9.56787 240.943 9.75342 240.943 9.97314C240.943 10.1831 240.872 10.3638 240.73 10.5151C240.594 10.6616 240.396 10.7349 240.137 10.7349C239.874 10.7349 239.673 10.6616 239.537 10.5151C239.405 10.3638 239.339 10.1831 239.339 9.97314ZM242.62 16.1255V15.957C242.62 15.3857 242.703 14.856 242.869 14.3677C243.035 13.8745 243.274 13.4473 243.587 13.0859C243.899 12.7197 244.278 12.4365 244.722 12.2363C245.167 12.0312 245.665 11.9287 246.216 11.9287C246.773 11.9287 247.273 12.0312 247.718 12.2363C248.167 12.4365 248.548 12.7197 248.86 13.0859C249.178 13.4473 249.419 13.8745 249.585 14.3677C249.751 14.856 249.834 15.3857 249.834 15.957V16.1255C249.834 16.6968 249.751 17.2266 249.585 17.7148C249.419 18.2031 249.178 18.6304 248.86 18.9966C248.548 19.3579 248.169 19.6411 247.725 19.8462C247.286 20.0464 246.788 20.1465 246.231 20.1465C245.674 20.1465 245.174 20.0464 244.729 19.8462C244.285 19.6411 243.904 19.3579 243.587 18.9966C243.274 18.6304 243.035 18.2031 242.869 17.7148C242.703 17.2266 242.62 16.6968 242.62 16.1255ZM243.975 15.957V16.1255C243.975 16.521 244.021 16.8945 244.114 17.2461C244.207 17.5928 244.346 17.9004 244.532 18.1689C244.722 18.4375 244.959 18.6499 245.242 18.8062C245.525 18.9575 245.855 19.0332 246.231 19.0332C246.602 19.0332 246.927 18.9575 247.205 18.8062C247.488 18.6499 247.723 18.4375 247.908 18.1689C248.094 17.9004 248.233 17.5928 248.326 17.2461C248.423 16.8945 248.472 16.521 248.472 16.1255V15.957C248.472 15.5664 248.423 15.1978 248.326 14.8511C248.233 14.4995 248.091 14.1895 247.901 13.9209C247.715 13.6475 247.481 13.4326 247.198 13.2764C246.919 13.1201 246.592 13.042 246.216 13.042C245.845 13.042 245.518 13.1201 245.235 13.2764C244.957 13.4326 244.722 13.6475 244.532 13.9209C244.346 14.1895 244.207 14.4995 244.114 14.8511C244.021 15.1978 243.975 15.5664 243.975 15.957ZM256.148 17.8979C256.148 17.7026 256.104 17.522 256.016 17.356C255.933 17.1851 255.76 17.0312 255.496 16.8945C255.237 16.7529 254.847 16.6309 254.324 16.5283C253.885 16.4355 253.487 16.3257 253.13 16.1987C252.779 16.0718 252.479 15.918 252.229 15.7373C251.985 15.5566 251.797 15.3442 251.666 15.1001C251.534 14.856 251.468 14.5703 251.468 14.2432C251.468 13.9307 251.536 13.6353 251.673 13.3569C251.814 13.0786 252.012 12.832 252.266 12.6172C252.525 12.4023 252.835 12.2339 253.196 12.1118C253.558 11.9897 253.96 11.9287 254.405 11.9287C255.04 11.9287 255.582 12.041 256.031 12.2656C256.48 12.4902 256.824 12.7905 257.063 13.1665C257.303 13.5376 257.422 13.9502 257.422 14.4043H256.067C256.067 14.1846 256.001 13.9722 255.87 13.7671C255.743 13.5571 255.555 13.3838 255.306 13.2471C255.062 13.1104 254.761 13.042 254.405 13.042C254.029 13.042 253.724 13.1006 253.489 13.2178C253.26 13.3301 253.091 13.4741 252.984 13.6499C252.881 13.8257 252.83 14.0112 252.83 14.2065C252.83 14.353 252.854 14.4849 252.903 14.6021C252.957 14.7144 253.05 14.8193 253.182 14.917C253.313 15.0098 253.499 15.0977 253.738 15.1807C253.978 15.2637 254.283 15.3467 254.654 15.4297C255.303 15.5762 255.838 15.752 256.258 15.957C256.678 16.1621 256.99 16.4136 257.195 16.7114C257.4 17.0093 257.503 17.3706 257.503 17.7954C257.503 18.1421 257.43 18.4595 257.283 18.7476C257.142 19.0356 256.934 19.2847 256.661 19.4946C256.392 19.6997 256.07 19.8608 255.694 19.978C255.323 20.0903 254.905 20.1465 254.441 20.1465C253.743 20.1465 253.152 20.022 252.669 19.7729C252.186 19.5239 251.819 19.2017 251.57 18.8062C251.321 18.4106 251.197 17.9932 251.197 17.5537H252.559C252.579 17.9248 252.686 18.2202 252.881 18.4399C253.077 18.6548 253.316 18.8086 253.599 18.9014C253.882 18.9893 254.163 19.0332 254.441 19.0332C254.812 19.0332 255.123 18.9844 255.372 18.8867C255.625 18.7891 255.818 18.6548 255.95 18.4839C256.082 18.313 256.148 18.1177 256.148 17.8979ZM271.089 14.6899V18.5938C270.958 18.7891 270.748 19.0088 270.459 19.2529C270.171 19.4922 269.773 19.7021 269.266 19.8828C268.763 20.0586 268.113 20.1465 267.317 20.1465C266.668 20.1465 266.07 20.0342 265.523 19.8096C264.981 19.5801 264.51 19.248 264.109 18.8135C263.714 18.374 263.406 17.8418 263.187 17.2168C262.972 16.5869 262.864 15.874 262.864 15.0781V14.2505C262.864 13.4546 262.957 12.7441 263.143 12.1191C263.333 11.4941 263.611 10.9644 263.978 10.5298C264.344 10.0903 264.793 9.7583 265.325 9.53369C265.857 9.3042 266.468 9.18945 267.156 9.18945C267.972 9.18945 268.653 9.33105 269.2 9.61426C269.751 9.89258 270.181 10.2783 270.489 10.7715C270.801 11.2646 271.001 11.8262 271.089 12.4561H269.676C269.612 12.0703 269.485 11.7188 269.295 11.4014C269.109 11.084 268.843 10.8301 268.497 10.6396C268.15 10.4443 267.703 10.3467 267.156 10.3467C266.663 10.3467 266.236 10.437 265.875 10.6177C265.513 10.7983 265.215 11.0571 264.981 11.394C264.747 11.731 264.571 12.1387 264.454 12.6172C264.341 13.0957 264.285 13.6353 264.285 14.2358V15.0781C264.285 15.6934 264.356 16.2427 264.498 16.7261C264.644 17.2095 264.852 17.6221 265.12 17.9639C265.389 18.3008 265.708 18.5571 266.08 18.7329C266.456 18.9087 266.871 18.9966 267.325 18.9966C267.828 18.9966 268.235 18.9551 268.548 18.8721C268.86 18.7842 269.104 18.6816 269.28 18.5645C269.456 18.4424 269.59 18.3276 269.683 18.2202V15.8325H267.215V14.6899H271.089ZM276.517 20.1465C275.965 20.1465 275.464 20.0537 275.015 19.8682C274.571 19.6777 274.188 19.4116 273.865 19.0698C273.548 18.728 273.304 18.3228 273.133 17.854C272.962 17.3853 272.876 16.8726 272.876 16.3159V16.0083C272.876 15.3638 272.972 14.79 273.162 14.2871C273.353 13.7793 273.611 13.3496 273.938 12.998C274.266 12.6465 274.637 12.3804 275.052 12.1997C275.467 12.019 275.896 11.9287 276.341 11.9287C276.907 11.9287 277.396 12.0264 277.806 12.2217C278.221 12.417 278.56 12.6904 278.824 13.042C279.087 13.3887 279.283 13.7988 279.41 14.2725C279.537 14.7412 279.6 15.2539 279.6 15.8105V16.4185H273.682V15.3125H278.245V15.21C278.226 14.8584 278.152 14.5166 278.025 14.1846C277.903 13.8525 277.708 13.5791 277.439 13.3643C277.171 13.1494 276.805 13.042 276.341 13.042C276.033 13.042 275.75 13.1079 275.491 13.2397C275.232 13.3667 275.01 13.5571 274.825 13.811C274.639 14.0649 274.495 14.375 274.393 14.7412C274.29 15.1074 274.239 15.5298 274.239 16.0083V16.3159C274.239 16.6919 274.29 17.0459 274.393 17.3779C274.5 17.7051 274.654 17.9932 274.854 18.2422C275.059 18.4912 275.306 18.6865 275.594 18.8281C275.887 18.9697 276.219 19.0405 276.59 19.0405C277.068 19.0405 277.474 18.9429 277.806 18.7476C278.138 18.5522 278.428 18.291 278.677 17.9639L279.498 18.6157C279.327 18.8745 279.109 19.1211 278.846 19.3555C278.582 19.5898 278.257 19.7803 277.872 19.9268C277.491 20.0732 277.039 20.1465 276.517 20.1465ZM282.537 13.7671V20H281.182V12.0752H282.464L282.537 13.7671ZM282.215 15.7373L281.651 15.7153C281.656 15.1733 281.736 14.6729 281.893 14.2139C282.049 13.75 282.269 13.3472 282.552 13.0054C282.835 12.6636 283.172 12.3999 283.562 12.2144C283.958 12.0239 284.395 11.9287 284.874 11.9287C285.264 11.9287 285.616 11.9824 285.928 12.0898C286.241 12.1924 286.507 12.3584 286.727 12.5879C286.951 12.8174 287.122 13.1152 287.239 13.4814C287.356 13.8428 287.415 14.2847 287.415 14.8071V20H286.053V14.7925C286.053 14.3774 285.992 14.0454 285.87 13.7964C285.748 13.5425 285.569 13.3594 285.335 13.2471C285.101 13.1299 284.812 13.0713 284.471 13.0713C284.134 13.0713 283.826 13.1421 283.548 13.2837C283.274 13.4253 283.038 13.6206 282.837 13.8696C282.642 14.1187 282.488 14.4043 282.376 14.7266C282.269 15.0439 282.215 15.3809 282.215 15.7373ZM292.762 20.1465C292.21 20.1465 291.709 20.0537 291.26 19.8682C290.816 19.6777 290.433 19.4116 290.11 19.0698C289.793 18.728 289.549 18.3228 289.378 17.854C289.207 17.3853 289.122 16.8726 289.122 16.3159V16.0083C289.122 15.3638 289.217 14.79 289.407 14.2871C289.598 13.7793 289.856 13.3496 290.184 12.998C290.511 12.6465 290.882 12.3804 291.297 12.1997C291.712 12.019 292.142 11.9287 292.586 11.9287C293.152 11.9287 293.641 12.0264 294.051 12.2217C294.466 12.417 294.805 12.6904 295.069 13.042C295.333 13.3887 295.528 13.7988 295.655 14.2725C295.782 14.7412 295.845 15.2539 295.845 15.8105V16.4185H289.927V15.3125H294.49V15.21C294.471 14.8584 294.397 14.5166 294.271 14.1846C294.148 13.8525 293.953 13.5791 293.685 13.3643C293.416 13.1494 293.05 13.042 292.586 13.042C292.278 13.042 291.995 13.1079 291.736 13.2397C291.478 13.3667 291.255 13.5571 291.07 13.811C290.884 14.0649 290.74 14.375 290.638 14.7412C290.535 15.1074 290.484 15.5298 290.484 16.0083V16.3159C290.484 16.6919 290.535 17.0459 290.638 17.3779C290.745 17.7051 290.899 17.9932 291.099 18.2422C291.304 18.4912 291.551 18.6865 291.839 18.8281C292.132 18.9697 292.464 19.0405 292.835 19.0405C293.313 19.0405 293.719 18.9429 294.051 18.7476C294.383 18.5522 294.673 18.291 294.922 17.9639L295.743 18.6157C295.572 18.8745 295.354 19.1211 295.091 19.3555C294.827 19.5898 294.502 19.7803 294.117 19.9268C293.736 20.0732 293.284 20.1465 292.762 20.1465ZM298.782 13.3203V20H297.427V12.0752H298.746L298.782 13.3203ZM301.258 12.0312L301.25 13.291C301.138 13.2666 301.031 13.252 300.928 13.2471C300.831 13.2373 300.718 13.2324 300.591 13.2324C300.279 13.2324 300.003 13.2812 299.764 13.3789C299.524 13.4766 299.322 13.6133 299.156 13.7891C298.99 13.9648 298.858 14.1748 298.76 14.4189C298.667 14.6582 298.606 14.9219 298.577 15.21L298.196 15.4297C298.196 14.9512 298.243 14.502 298.335 14.082C298.433 13.6621 298.582 13.291 298.782 12.9688C298.982 12.6416 299.236 12.3877 299.544 12.207C299.856 12.0215 300.228 11.9287 300.657 11.9287C300.755 11.9287 300.867 11.9409 300.994 11.9653C301.121 11.9849 301.209 12.0068 301.258 12.0312ZM306.89 18.645V14.5654C306.89 14.2529 306.827 13.9819 306.7 13.7524C306.578 13.5181 306.392 13.3374 306.143 13.2104C305.894 13.0835 305.586 13.02 305.22 13.02C304.878 13.02 304.578 13.0786 304.319 13.1958C304.065 13.313 303.865 13.4668 303.719 13.6572C303.577 13.8477 303.506 14.0527 303.506 14.2725H302.151C302.151 13.9893 302.225 13.7085 302.371 13.4302C302.518 13.1519 302.728 12.9004 303.001 12.6758C303.279 12.4463 303.611 12.2656 303.997 12.1338C304.388 11.9971 304.822 11.9287 305.301 11.9287C305.877 11.9287 306.385 12.0264 306.824 12.2217C307.269 12.417 307.615 12.7124 307.864 13.1079C308.118 13.4985 308.245 13.9893 308.245 14.5801V18.2715C308.245 18.5352 308.267 18.8159 308.311 19.1138C308.36 19.4116 308.431 19.668 308.523 19.8828V20H307.11C307.042 19.8438 306.988 19.6362 306.949 19.3774C306.91 19.1138 306.89 18.8696 306.89 18.645ZM307.125 15.1953L307.139 16.1475H305.77C305.384 16.1475 305.04 16.1792 304.737 16.2427C304.434 16.3013 304.18 16.3916 303.975 16.5137C303.77 16.6357 303.614 16.7896 303.506 16.9751C303.399 17.1558 303.345 17.3682 303.345 17.6123C303.345 17.8613 303.401 18.0884 303.514 18.2935C303.626 18.4985 303.794 18.6621 304.019 18.7842C304.249 18.9014 304.529 18.96 304.861 18.96C305.276 18.96 305.643 18.8721 305.96 18.6963C306.277 18.5205 306.529 18.3057 306.714 18.0518C306.905 17.7979 307.007 17.5513 307.022 17.312L307.601 17.9639C307.566 18.1689 307.474 18.396 307.322 18.645C307.171 18.894 306.968 19.1333 306.714 19.3628C306.465 19.5874 306.167 19.7754 305.821 19.9268C305.479 20.0732 305.093 20.1465 304.664 20.1465C304.126 20.1465 303.655 20.0415 303.25 19.8315C302.85 19.6216 302.537 19.3408 302.312 18.9893C302.093 18.6328 301.983 18.2349 301.983 17.7954C301.983 17.3706 302.066 16.9971 302.232 16.6748C302.398 16.3477 302.637 16.0767 302.95 15.8618C303.262 15.6421 303.638 15.4761 304.078 15.3638C304.517 15.2515 305.008 15.1953 305.55 15.1953H307.125ZM311.849 8.75V20H310.486V8.75H311.849ZM317.312 20.1465C316.761 20.1465 316.26 20.0537 315.811 19.8682C315.367 19.6777 314.983 19.4116 314.661 19.0698C314.344 18.728 314.1 18.3228 313.929 17.854C313.758 17.3853 313.672 16.8726 313.672 16.3159V16.0083C313.672 15.3638 313.768 14.79 313.958 14.2871C314.148 13.7793 314.407 13.3496 314.734 12.998C315.062 12.6465 315.433 12.3804 315.848 12.1997C316.263 12.019 316.692 11.9287 317.137 11.9287C317.703 11.9287 318.191 12.0264 318.602 12.2217C319.017 12.417 319.356 12.6904 319.62 13.042C319.883 13.3887 320.079 13.7988 320.206 14.2725C320.333 14.7412 320.396 15.2539 320.396 15.8105V16.4185H314.478V15.3125H319.041V15.21C319.021 14.8584 318.948 14.5166 318.821 14.1846C318.699 13.8525 318.504 13.5791 318.235 13.3643C317.967 13.1494 317.601 13.042 317.137 13.042C316.829 13.042 316.546 13.1079 316.287 13.2397C316.028 13.3667 315.806 13.5571 315.621 13.811C315.435 14.0649 315.291 14.375 315.188 14.7412C315.086 15.1074 315.035 15.5298 315.035 16.0083V16.3159C315.035 16.6919 315.086 17.0459 315.188 17.3779C315.296 17.7051 315.45 17.9932 315.65 18.2422C315.855 18.4912 316.102 18.6865 316.39 18.8281C316.683 18.9697 317.015 19.0405 317.386 19.0405C317.864 19.0405 318.27 18.9429 318.602 18.7476C318.934 18.5522 319.224 18.291 319.473 17.9639L320.293 18.6157C320.123 18.8745 319.905 19.1211 319.642 19.3555C319.378 19.5898 319.053 19.7803 318.667 19.9268C318.287 20.0732 317.835 20.1465 317.312 20.1465ZM326.592 17.8979C326.592 17.7026 326.548 17.522 326.46 17.356C326.377 17.1851 326.204 17.0312 325.94 16.8945C325.682 16.7529 325.291 16.6309 324.769 16.5283C324.329 16.4355 323.931 16.3257 323.575 16.1987C323.223 16.0718 322.923 15.918 322.674 15.7373C322.43 15.5566 322.242 15.3442 322.11 15.1001C321.978 14.856 321.912 14.5703 321.912 14.2432C321.912 13.9307 321.98 13.6353 322.117 13.3569C322.259 13.0786 322.457 12.832 322.71 12.6172C322.969 12.4023 323.279 12.2339 323.641 12.1118C324.002 11.9897 324.405 11.9287 324.849 11.9287C325.484 11.9287 326.026 12.041 326.475 12.2656C326.924 12.4902 327.269 12.7905 327.508 13.1665C327.747 13.5376 327.867 13.9502 327.867 14.4043H326.512C326.512 14.1846 326.446 13.9722 326.314 13.7671C326.187 13.5571 325.999 13.3838 325.75 13.2471C325.506 13.1104 325.206 13.042 324.849 13.042C324.473 13.042 324.168 13.1006 323.934 13.2178C323.704 13.3301 323.536 13.4741 323.428 13.6499C323.326 13.8257 323.274 14.0112 323.274 14.2065C323.274 14.353 323.299 14.4849 323.348 14.6021C323.401 14.7144 323.494 14.8193 323.626 14.917C323.758 15.0098 323.943 15.0977 324.183 15.1807C324.422 15.2637 324.727 15.3467 325.098 15.4297C325.748 15.5762 326.282 15.752 326.702 15.957C327.122 16.1621 327.435 16.4136 327.64 16.7114C327.845 17.0093 327.947 17.3706 327.947 17.7954C327.947 18.1421 327.874 18.4595 327.728 18.7476C327.586 19.0356 327.378 19.2847 327.105 19.4946C326.836 19.6997 326.514 19.8608 326.138 19.978C325.767 20.0903 325.35 20.1465 324.886 20.1465C324.188 20.1465 323.597 20.022 323.113 19.7729C322.63 19.5239 322.264 19.2017 322.015 18.8062C321.766 18.4106 321.641 17.9932 321.641 17.5537H323.003C323.023 17.9248 323.13 18.2202 323.326 18.4399C323.521 18.6548 323.76 18.8086 324.043 18.9014C324.327 18.9893 324.607 19.0332 324.886 19.0332C325.257 19.0332 325.567 18.9844 325.816 18.8867C326.07 18.7891 326.263 18.6548 326.395 18.4839C326.526 18.313 326.592 18.1177 326.592 17.8979ZM133.306 35.1655C133.306 34.9995 133.282 34.8506 133.233 34.7188C133.184 34.582 133.094 34.4551 132.962 34.3379C132.83 34.2207 132.64 34.1035 132.391 33.9863C132.146 33.8643 131.824 33.7373 131.424 33.6055C130.955 33.4492 130.503 33.2734 130.069 33.0781C129.634 32.8779 129.246 32.646 128.904 32.3823C128.562 32.1138 128.292 31.8013 128.091 31.4448C127.891 31.0835 127.791 30.6636 127.791 30.1851C127.791 29.7261 127.894 29.3135 128.099 28.9473C128.304 28.5762 128.589 28.2612 128.956 28.0024C129.327 27.7388 129.761 27.5386 130.259 27.4019C130.757 27.2603 131.302 27.1895 131.893 27.1895C132.674 27.1895 133.362 27.3262 133.958 27.5996C134.559 27.8682 135.027 28.2515 135.364 28.7495C135.706 29.2427 135.877 29.8262 135.877 30.5H133.321C133.321 30.2314 133.265 29.9946 133.152 29.7896C133.045 29.5845 132.881 29.4233 132.662 29.3062C132.442 29.189 132.166 29.1304 131.834 29.1304C131.512 29.1304 131.241 29.1792 131.021 29.2769C130.801 29.3745 130.635 29.5063 130.523 29.6724C130.411 29.8335 130.354 30.0117 130.354 30.207C130.354 30.3682 130.398 30.5146 130.486 30.6465C130.579 30.7734 130.708 30.8931 130.875 31.0054C131.045 31.1177 131.25 31.2251 131.49 31.3276C131.734 31.4302 132.007 31.5303 132.31 31.6279C132.876 31.8086 133.379 32.0112 133.819 32.2358C134.263 32.4556 134.637 32.707 134.939 32.9902C135.247 33.2686 135.479 33.5859 135.635 33.9424C135.796 34.2988 135.877 34.7017 135.877 35.1509C135.877 35.6294 135.784 36.0542 135.599 36.4253C135.413 36.7964 135.147 37.1113 134.8 37.3701C134.454 37.624 134.039 37.8169 133.555 37.9487C133.072 38.0806 132.532 38.1465 131.937 38.1465C131.39 38.1465 130.85 38.0781 130.318 37.9414C129.791 37.7998 129.312 37.585 128.882 37.2969C128.453 37.0039 128.108 36.6304 127.85 36.1763C127.596 35.7173 127.469 35.1729 127.469 34.543H130.047C130.047 34.8555 130.088 35.1191 130.171 35.334C130.254 35.5488 130.376 35.7222 130.538 35.854C130.699 35.981 130.896 36.0737 131.131 36.1323C131.365 36.186 131.634 36.2129 131.937 36.2129C132.264 36.2129 132.527 36.1665 132.728 36.0737C132.928 35.9761 133.074 35.8491 133.167 35.6929C133.26 35.5317 133.306 35.356 133.306 35.1655ZM140.923 38.1465C140.279 38.1465 139.703 38.0464 139.195 37.8462C138.687 37.6411 138.257 37.3604 137.906 37.0039C137.559 36.6475 137.293 36.2373 137.107 35.7734C136.927 35.3096 136.836 34.8188 136.836 34.3013V34.0229C136.836 33.4419 136.917 32.9048 137.078 32.4116C137.239 31.9136 137.479 31.479 137.796 31.1079C138.113 30.7368 138.511 30.4487 138.99 30.2437C139.468 30.0337 140.025 29.9287 140.66 29.9287C141.221 29.9287 141.724 30.019 142.168 30.1997C142.613 30.3804 142.989 30.6392 143.296 30.9761C143.609 31.313 143.846 31.7207 144.007 32.1992C144.173 32.6777 144.256 33.2148 144.256 33.8105V34.814H137.781V33.2686H141.846V33.0781C141.851 32.8145 141.805 32.5898 141.707 32.4043C141.614 32.2188 141.478 32.0771 141.297 31.9795C141.116 31.8818 140.896 31.833 140.638 31.833C140.369 31.833 140.147 31.8916 139.971 32.0088C139.8 32.126 139.666 32.2871 139.568 32.4922C139.476 32.6924 139.41 32.9243 139.371 33.188C139.332 33.4517 139.312 33.73 139.312 34.0229V34.3013C139.312 34.5942 139.351 34.8604 139.429 35.0996C139.512 35.3389 139.629 35.5439 139.781 35.7148C139.937 35.8809 140.123 36.0103 140.337 36.103C140.557 36.1958 140.806 36.2422 141.084 36.2422C141.421 36.2422 141.753 36.1787 142.081 36.0518C142.408 35.9248 142.688 35.7148 142.923 35.4219L144.043 36.7549C143.882 36.9844 143.653 37.2065 143.355 37.4214C143.062 37.6362 142.71 37.812 142.3 37.9487C141.89 38.0806 141.431 38.1465 140.923 38.1465ZM149.815 36.1836V26.75H152.298V38H150.071L149.815 36.1836ZM144.952 34.1328V33.979C144.952 33.3784 145.018 32.8315 145.149 32.3384C145.281 31.8403 145.477 31.4131 145.735 31.0566C145.994 30.6953 146.316 30.417 146.702 30.2217C147.088 30.0264 147.532 29.9287 148.035 29.9287C148.484 29.9287 148.877 30.0337 149.214 30.2437C149.551 30.4487 149.839 30.7368 150.079 31.1079C150.318 31.479 150.513 31.9136 150.665 32.4116C150.816 32.9048 150.931 33.437 151.009 34.0083V34.1914C150.931 34.7285 150.816 35.2363 150.665 35.7148C150.513 36.1885 150.318 36.6084 150.079 36.9746C149.839 37.3408 149.549 37.6289 149.207 37.8389C148.87 38.0439 148.475 38.1465 148.021 38.1465C147.518 38.1465 147.073 38.0464 146.688 37.8462C146.307 37.646 145.987 37.3652 145.728 37.0039C145.474 36.6426 145.281 36.2178 145.149 35.7295C145.018 35.2412 144.952 34.709 144.952 34.1328ZM147.42 33.979V34.1328C147.42 34.4307 147.439 34.7065 147.479 34.9604C147.518 35.2144 147.583 35.439 147.676 35.6343C147.774 35.8247 147.901 35.9736 148.057 36.0811C148.218 36.1885 148.416 36.2422 148.65 36.2422C148.968 36.2422 149.229 36.1665 149.434 36.0151C149.644 35.8638 149.798 35.6489 149.896 35.3706C149.998 35.0923 150.042 34.7651 150.027 34.3892V33.8105C150.037 33.4883 150.015 33.2051 149.961 32.9609C149.908 32.7119 149.822 32.5044 149.705 32.3384C149.593 32.1724 149.449 32.0479 149.273 31.9648C149.102 31.877 148.899 31.833 148.665 31.833C148.436 31.833 148.24 31.8867 148.079 31.9941C147.923 32.1016 147.796 32.2529 147.698 32.4482C147.601 32.6387 147.53 32.8657 147.486 33.1294C147.442 33.3882 147.42 33.6714 147.42 33.979ZM157.535 38.1465C156.89 38.1465 156.314 38.0464 155.806 37.8462C155.298 37.6411 154.869 37.3604 154.517 37.0039C154.17 36.6475 153.904 36.2373 153.719 35.7734C153.538 35.3096 153.448 34.8188 153.448 34.3013V34.0229C153.448 33.4419 153.528 32.9048 153.689 32.4116C153.851 31.9136 154.09 31.479 154.407 31.1079C154.725 30.7368 155.123 30.4487 155.601 30.2437C156.08 30.0337 156.636 29.9287 157.271 29.9287C157.833 29.9287 158.335 30.019 158.78 30.1997C159.224 30.3804 159.6 30.6392 159.908 30.9761C160.22 31.313 160.457 31.7207 160.618 32.1992C160.784 32.6777 160.867 33.2148 160.867 33.8105V34.814H154.393V33.2686H158.458V33.0781C158.462 32.8145 158.416 32.5898 158.318 32.4043C158.226 32.2188 158.089 32.0771 157.908 31.9795C157.728 31.8818 157.508 31.833 157.249 31.833C156.98 31.833 156.758 31.8916 156.583 32.0088C156.412 32.126 156.277 32.2871 156.18 32.4922C156.087 32.6924 156.021 32.9243 155.982 33.188C155.943 33.4517 155.923 33.73 155.923 34.0229V34.3013C155.923 34.5942 155.962 34.8604 156.041 35.0996C156.124 35.3389 156.241 35.5439 156.392 35.7148C156.548 35.8809 156.734 36.0103 156.949 36.103C157.168 36.1958 157.417 36.2422 157.696 36.2422C158.033 36.2422 158.365 36.1787 158.692 36.0518C159.019 35.9248 159.3 35.7148 159.534 35.4219L160.655 36.7549C160.494 36.9844 160.264 37.2065 159.966 37.4214C159.673 37.6362 159.322 37.812 158.912 37.9487C158.501 38.0806 158.042 38.1465 157.535 38.1465ZM174.747 32.4556V32.8877C174.747 33.7031 174.632 34.4355 174.402 35.085C174.178 35.7295 173.858 36.2812 173.443 36.7402C173.028 37.1943 172.537 37.5435 171.971 37.7876C171.404 38.0269 170.779 38.1465 170.096 38.1465C169.407 38.1465 168.777 38.0269 168.206 37.7876C167.64 37.5435 167.146 37.1943 166.727 36.7402C166.312 36.2812 165.989 35.7295 165.76 35.085C165.535 34.4355 165.423 33.7031 165.423 32.8877V32.4556C165.423 31.6401 165.535 30.9077 165.76 30.2583C165.989 29.6089 166.309 29.0571 166.719 28.603C167.134 28.144 167.625 27.7949 168.191 27.5557C168.763 27.3115 169.393 27.1895 170.081 27.1895C170.765 27.1895 171.39 27.3115 171.956 27.5557C172.527 27.7949 173.021 28.144 173.436 28.603C173.851 29.0571 174.173 29.6089 174.402 30.2583C174.632 30.9077 174.747 31.6401 174.747 32.4556ZM172.139 32.8877V32.4409C172.139 31.9136 172.093 31.4497 172 31.0493C171.912 30.644 171.78 30.3047 171.604 30.0312C171.429 29.7578 171.211 29.5527 170.953 29.416C170.699 29.2744 170.408 29.2036 170.081 29.2036C169.739 29.2036 169.441 29.2744 169.188 29.416C168.934 29.5527 168.721 29.7578 168.55 30.0312C168.379 30.3047 168.25 30.644 168.162 31.0493C168.079 31.4497 168.038 31.9136 168.038 32.4409V32.8877C168.038 33.4102 168.079 33.874 168.162 34.2793C168.25 34.6797 168.379 35.019 168.55 35.2974C168.726 35.5757 168.941 35.7856 169.195 35.9272C169.454 36.0688 169.754 36.1396 170.096 36.1396C170.423 36.1396 170.713 36.0688 170.967 35.9272C171.221 35.7856 171.434 35.5757 171.604 35.2974C171.78 35.019 171.912 34.6797 172 34.2793C172.093 33.874 172.139 33.4102 172.139 32.8877ZM179.31 36.2422C179.539 36.2422 179.734 36.2007 179.896 36.1177C180.062 36.0298 180.186 35.9077 180.269 35.7515C180.357 35.5903 180.398 35.3975 180.394 35.1729H182.715C182.72 35.7686 182.574 36.291 182.276 36.7402C181.983 37.1846 181.583 37.5312 181.075 37.7803C180.572 38.0244 180.003 38.1465 179.368 38.1465C178.748 38.1465 178.206 38.0464 177.742 37.8462C177.278 37.6411 176.89 37.3579 176.578 36.9966C176.27 36.6304 176.038 36.2031 175.882 35.7148C175.73 35.2266 175.655 34.6968 175.655 34.1255V33.957C175.655 33.3857 175.73 32.856 175.882 32.3677C176.038 31.8745 176.27 31.4473 176.578 31.0859C176.89 30.7197 177.276 30.4365 177.735 30.2363C178.199 30.0312 178.738 29.9287 179.354 29.9287C180.013 29.9287 180.594 30.0532 181.097 30.3022C181.604 30.5513 182.002 30.9126 182.291 31.3862C182.579 31.8599 182.72 32.4336 182.715 33.1074H180.394C180.398 32.8682 180.362 32.6533 180.284 32.4629C180.206 32.2725 180.083 32.1211 179.917 32.0088C179.756 31.8916 179.549 31.833 179.295 31.833C179.041 31.833 178.836 31.8892 178.68 32.0015C178.523 32.1138 178.404 32.27 178.321 32.4702C178.243 32.6655 178.189 32.8901 178.16 33.144C178.135 33.3979 178.123 33.6689 178.123 33.957V34.1255C178.123 34.4185 178.135 34.6943 178.16 34.9531C178.189 35.207 178.245 35.4316 178.328 35.627C178.411 35.8174 178.531 35.9688 178.687 36.0811C178.843 36.1885 179.051 36.2422 179.31 36.2422ZM187.117 36.2422C187.347 36.2422 187.542 36.2007 187.703 36.1177C187.869 36.0298 187.994 35.9077 188.077 35.7515C188.165 35.5903 188.206 35.3975 188.201 35.1729H190.523C190.528 35.7686 190.381 36.291 190.083 36.7402C189.791 37.1846 189.39 37.5312 188.882 37.7803C188.379 38.0244 187.811 38.1465 187.176 38.1465C186.556 38.1465 186.014 38.0464 185.55 37.8462C185.086 37.6411 184.698 37.3579 184.385 36.9966C184.078 36.6304 183.846 36.2031 183.689 35.7148C183.538 35.2266 183.462 34.6968 183.462 34.1255V33.957C183.462 33.3857 183.538 32.856 183.689 32.3677C183.846 31.8745 184.078 31.4473 184.385 31.0859C184.698 30.7197 185.083 30.4365 185.542 30.2363C186.006 30.0312 186.546 29.9287 187.161 29.9287C187.82 29.9287 188.401 30.0532 188.904 30.3022C189.412 30.5513 189.81 30.9126 190.098 31.3862C190.386 31.8599 190.528 32.4336 190.523 33.1074H188.201C188.206 32.8682 188.169 32.6533 188.091 32.4629C188.013 32.2725 187.891 32.1211 187.725 32.0088C187.564 31.8916 187.356 31.833 187.103 31.833C186.849 31.833 186.644 31.8892 186.487 32.0015C186.331 32.1138 186.211 32.27 186.128 32.4702C186.05 32.6655 185.997 32.8901 185.967 33.144C185.943 33.3979 185.931 33.6689 185.931 33.957V34.1255C185.931 34.4185 185.943 34.6943 185.967 34.9531C185.997 35.207 186.053 35.4316 186.136 35.627C186.219 35.8174 186.338 35.9688 186.495 36.0811C186.651 36.1885 186.858 36.2422 187.117 36.2422ZM194.185 30.0752V38H191.709V30.0752H194.185ZM191.563 28.0317C191.563 27.6802 191.69 27.3921 191.944 27.1675C192.198 26.9429 192.527 26.8306 192.933 26.8306C193.338 26.8306 193.667 26.9429 193.921 27.1675C194.175 27.3921 194.302 27.6802 194.302 28.0317C194.302 28.3833 194.175 28.6714 193.921 28.896C193.667 29.1206 193.338 29.2329 192.933 29.2329C192.527 29.2329 192.198 29.1206 191.944 28.896C191.69 28.6714 191.563 28.3833 191.563 28.0317ZM200.264 36.1836V26.75H202.747V38H200.521L200.264 36.1836ZM195.401 34.1328V33.979C195.401 33.3784 195.467 32.8315 195.599 32.3384C195.73 31.8403 195.926 31.4131 196.185 31.0566C196.443 30.6953 196.766 30.417 197.151 30.2217C197.537 30.0264 197.981 29.9287 198.484 29.9287C198.934 29.9287 199.327 30.0337 199.664 30.2437C200 30.4487 200.289 30.7368 200.528 31.1079C200.767 31.479 200.962 31.9136 201.114 32.4116C201.265 32.9048 201.38 33.437 201.458 34.0083V34.1914C201.38 34.7285 201.265 35.2363 201.114 35.7148C200.962 36.1885 200.767 36.6084 200.528 36.9746C200.289 37.3408 199.998 37.6289 199.656 37.8389C199.319 38.0439 198.924 38.1465 198.47 38.1465C197.967 38.1465 197.522 38.0464 197.137 37.8462C196.756 37.646 196.436 37.3652 196.177 37.0039C195.923 36.6426 195.73 36.2178 195.599 35.7295C195.467 35.2412 195.401 34.709 195.401 34.1328ZM197.869 33.979V34.1328C197.869 34.4307 197.889 34.7065 197.928 34.9604C197.967 35.2144 198.033 35.439 198.125 35.6343C198.223 35.8247 198.35 35.9736 198.506 36.0811C198.667 36.1885 198.865 36.2422 199.1 36.2422C199.417 36.2422 199.678 36.1665 199.883 36.0151C200.093 35.8638 200.247 35.6489 200.345 35.3706C200.447 35.0923 200.491 34.7651 200.477 34.3892V33.8105C200.486 33.4883 200.464 33.2051 200.411 32.9609C200.357 32.7119 200.271 32.5044 200.154 32.3384C200.042 32.1724 199.898 32.0479 199.722 31.9648C199.551 31.877 199.349 31.833 199.114 31.833C198.885 31.833 198.689 31.8867 198.528 31.9941C198.372 32.1016 198.245 32.2529 198.147 32.4482C198.05 32.6387 197.979 32.8657 197.935 33.1294C197.891 33.3882 197.869 33.6714 197.869 33.979ZM207.984 38.1465C207.339 38.1465 206.763 38.0464 206.255 37.8462C205.748 37.6411 205.318 37.3604 204.966 37.0039C204.62 36.6475 204.354 36.2373 204.168 35.7734C203.987 35.3096 203.897 34.8188 203.897 34.3013V34.0229C203.897 33.4419 203.978 32.9048 204.139 32.4116C204.3 31.9136 204.539 31.479 204.856 31.1079C205.174 30.7368 205.572 30.4487 206.05 30.2437C206.529 30.0337 207.085 29.9287 207.72 29.9287C208.282 29.9287 208.785 30.019 209.229 30.1997C209.673 30.3804 210.049 30.6392 210.357 30.9761C210.669 31.313 210.906 31.7207 211.067 32.1992C211.233 32.6777 211.316 33.2148 211.316 33.8105V34.814H204.842V33.2686H208.907V33.0781C208.912 32.8145 208.865 32.5898 208.768 32.4043C208.675 32.2188 208.538 32.0771 208.357 31.9795C208.177 31.8818 207.957 31.833 207.698 31.833C207.43 31.833 207.208 31.8916 207.032 32.0088C206.861 32.126 206.727 32.2871 206.629 32.4922C206.536 32.6924 206.47 32.9243 206.431 33.188C206.392 33.4517 206.373 33.73 206.373 34.0229V34.3013C206.373 34.5942 206.412 34.8604 206.49 35.0996C206.573 35.3389 206.69 35.5439 206.841 35.7148C206.998 35.8809 207.183 36.0103 207.398 36.103C207.618 36.1958 207.867 36.2422 208.145 36.2422C208.482 36.2422 208.814 36.1787 209.141 36.0518C209.468 35.9248 209.749 35.7148 209.983 35.4219L211.104 36.7549C210.943 36.9844 210.713 37.2065 210.416 37.4214C210.123 37.6362 209.771 37.812 209.361 37.9487C208.951 38.0806 208.492 38.1465 207.984 38.1465ZM214.744 31.7671V38H212.276V30.0752H214.59L214.744 31.7671ZM214.451 33.7666L213.873 33.7812C213.873 33.1758 213.946 32.6362 214.092 32.1626C214.239 31.6841 214.446 31.2788 214.715 30.9468C214.983 30.6147 215.303 30.3633 215.674 30.1924C216.05 30.0166 216.468 29.9287 216.927 29.9287C217.293 29.9287 217.627 29.9824 217.93 30.0898C218.238 30.1973 218.501 30.3706 218.721 30.6099C218.946 30.8491 219.117 31.1665 219.234 31.562C219.356 31.9526 219.417 32.436 219.417 33.0122V38H216.934V33.0049C216.934 32.6875 216.89 32.4458 216.802 32.2798C216.714 32.1089 216.587 31.9917 216.421 31.9282C216.255 31.8647 216.053 31.833 215.813 31.833C215.56 31.833 215.345 31.8818 215.169 31.9795C214.993 32.0771 214.852 32.2139 214.744 32.3896C214.642 32.5605 214.566 32.7632 214.517 32.9976C214.473 33.2319 214.451 33.4883 214.451 33.7666ZM224.961 30.0752V31.7891H220.186V30.0752H224.961ZM221.189 28.105H223.658V35.4146C223.658 35.6245 223.682 35.7881 223.731 35.9053C223.78 36.0176 223.863 36.0981 223.98 36.147C224.102 36.1909 224.263 36.2129 224.463 36.2129C224.605 36.2129 224.722 36.2104 224.815 36.2056C224.908 36.1958 224.996 36.1836 225.079 36.1689V37.9341C224.869 38.0024 224.649 38.0537 224.419 38.0879C224.19 38.127 223.946 38.1465 223.687 38.1465C223.16 38.1465 222.708 38.0635 222.332 37.8975C221.961 37.7314 221.678 37.4702 221.482 37.1138C221.287 36.7573 221.189 36.2935 221.189 35.7222V28.105ZM229.781 38.1465C229.136 38.1465 228.56 38.0464 228.052 37.8462C227.544 37.6411 227.115 37.3604 226.763 37.0039C226.417 36.6475 226.15 36.2373 225.965 35.7734C225.784 35.3096 225.694 34.8188 225.694 34.3013V34.0229C225.694 33.4419 225.774 32.9048 225.936 32.4116C226.097 31.9136 226.336 31.479 226.653 31.1079C226.971 30.7368 227.369 30.4487 227.847 30.2437C228.326 30.0337 228.882 29.9287 229.517 29.9287C230.079 29.9287 230.582 30.019 231.026 30.1997C231.47 30.3804 231.846 30.6392 232.154 30.9761C232.466 31.313 232.703 31.7207 232.864 32.1992C233.03 32.6777 233.113 33.2148 233.113 33.8105V34.814H226.639V33.2686H230.704V33.0781C230.708 32.8145 230.662 32.5898 230.564 32.4043C230.472 32.2188 230.335 32.0771 230.154 31.9795C229.974 31.8818 229.754 31.833 229.495 31.833C229.227 31.833 229.004 31.8916 228.829 32.0088C228.658 32.126 228.523 32.2871 228.426 32.4922C228.333 32.6924 228.267 32.9243 228.228 33.188C228.189 33.4517 228.169 33.73 228.169 34.0229V34.3013C228.169 34.5942 228.208 34.8604 228.287 35.0996C228.37 35.3389 228.487 35.5439 228.638 35.7148C228.794 35.8809 228.98 36.0103 229.195 36.103C229.415 36.1958 229.664 36.2422 229.942 36.2422C230.279 36.2422 230.611 36.1787 230.938 36.0518C231.265 35.9248 231.546 35.7148 231.78 35.4219L232.901 36.7549C232.74 36.9844 232.51 37.2065 232.212 37.4214C231.919 37.6362 231.568 37.812 231.158 37.9487C230.748 38.0806 230.289 38.1465 229.781 38.1465Z" fill="white"/>
</svg>
