<?xml version="1.0" encoding="utf-8"?>
<!-- Generator: Adobe Illustrator 16.0.3, SVG Export Plug-In . SVG Version: 6.00 Build 0)  -->
<!DOCTYPE svg PUBLIC "-//W3C//DTD SVG 1.1//EN" "http://www.w3.org/Graphics/SVG/1.1/DTD/svg11.dtd">
<svg version="1.1" id="Capa_1" xmlns="http://www.w3.org/2000/svg" xmlns:xlink="http://www.w3.org/1999/xlink" x="0px" y="0px"
	 width="223px" height="101.5px" viewBox="0 0 223 101.5" enable-background="new 0 0 223 101.5" xml:space="preserve">
<g>
	<g>
		<g>
			<path fill="#FFFFFF" d="M86.555,31.12l-0.069,14.268c0,2.161-0.075,4.251-0.218,6.126c-0.434,6.411-2.667,10.735-7.063,13.76
				c-3.604,2.45-8.358,3.748-14.052,3.748c-4.034,0-7.638-0.577-10.738-1.945c-2.232-0.862-4.252-2.088-5.834-3.748
				c-2.956-3.24-4.108-7.277-4.035-14.481l0.071-5.405l0.071-13.188c0-3.528-0.215-6.051-0.575-7.494
				c-0.359-1.512-1.441-2.234-3.531-2.234H39.86l1.37-3.026l1.801,0.071h6.701l2.308-0.144c-0.29,2.379-0.434,4.108-0.507,5.332
				c0,0.936,0,3.53-0.07,7.712l-0.146,14.341v1.15c0,6.63,0.29,8.72,1.442,11.386c1.874,4.252,6.917,6.918,12.971,6.918
				c3.53,0,6.701-0.795,9.222-2.234c2.02-1.226,3.604-2.958,4.468-4.899c1.227-2.885,1.512-5.912,1.512-13.043l0.074-12.97
				c0.071-6.558-0.434-10.521-1.442-13.619l1.876,0.07h4.033l2.02-0.07C86.771,22.616,86.626,24.131,86.555,31.12z"/>
			<path fill="#FFFFFF" d="M134.842,20.958l-0.866,2.885l-0.572,2.158h-1.014c-3.383-3.961-7.276-5.617-13.041-5.617
				c-11.747,0-19.023,8.069-19.023,21.111c0,13.476,8.07,22.48,20.175,22.48c2.09,0,4.251-0.355,6.415-0.862
				c3.098-0.793,4.323-1.297,7.203-3.386l0.866,0.647l-0.648,1.73l-0.795,2.378l-0.646,2.234c-3.386,0.862-4.686,1.082-6.412,1.367
				c-2.163,0.287-5.044,0.505-7.351,0.505c-5.115,0-9.729-0.938-13.331-2.738c-8.07-4.035-13.403-13.259-13.403-23.346
				c0-7.783,3.315-14.917,9.009-19.744c5.257-4.395,11.888-6.413,20.752-6.413c2.019,0,3.962,0.144,6.05,0.433
				c2.738,0.361,4.11,0.721,7.427,1.801L134.842,20.958z"/>
			<path fill="#FFFFFF" d="M183.713,67.651l-1.874,0.072l-5.478,0.143l-3.027,0.218c-0.358-0.573-0.645-1.008-0.862-1.295
				c-0.145-0.218-0.433-0.793-0.938-1.657c-0.356-0.722-0.866-1.66-1.514-2.738c-3.386-5.768-5.909-9.513-10.088-15.203
				c-2.303-3.173-3.527-4.039-5.473-4.039h-0.722l0.43-1.8l0.292-1.73c3.455-0.071,4.752-0.215,6.556-0.937
				c3.461-1.297,5.547-4.754,5.547-8.934c0-5.549-3.599-8.937-9.655-8.937c-1.298,0-2.445,0.073-5.115,0.433
				c-0.144,3.027-0.215,3.747-0.215,9.224l-0.074,23.562c0,6.558,0.436,10.521,1.443,13.618l-1.874-0.143h-5.263l-2.014,0.143
				c0.788-5.113,0.934-6.845,0.934-13.69l0.071-23.708c0-3.528-0.142-6.051-0.503-7.494c-0.357-1.512-1.438-2.234-3.528-2.234
				h-0.721l1.369-3.026l5.766,0.142l6.846-0.215c1.872-0.072,3.53-0.072,5.115-0.072c6.122,0,8.358,0.577,10.807,2.524
				c2.378,1.943,3.676,4.97,3.676,8.502c0,3.024-1.008,5.835-2.883,7.853c-1.586,1.656-3.604,3.027-7.061,4.826l1.655,2.236
				l7.28,10.664c3.386,5.045,5.835,8.287,8.068,10.521c1.155,1.152,1.659,1.583,3.101,2.663L183.713,67.651z"/>
		</g>
		<path fill="#FFFFFF" d="M196.001,83.986c0,0-33.216-7.656-84.22-7.656c-43.326,0-84.136,7.656-84.136,7.656v2.002
			c0,0,40.989-3.76,84.146-3.76c52,0,84.208,3.76,84.208,3.76L196.001,83.986L196.001,83.986z"/>
	</g>
</g>
</svg>
